{"glyphs":{"0":{"ha":963,"x_min":83,"x_max":879,"o":"m 83 510 q 83 616 83 510 q 197 869 83 721 q 495 1017 310 1017 q 780 879 681 1017 q 879 519 879 742 q 767 138 879 296 q 464 -19 656 -19 q 285 26 361 -19 q 167 150 208 72 q 83 510 83 300 m 479 938 q 419 938 479 938 q 294 814 358 938 q 231 498 231 690 q 294 183 231 306 q 479 60 358 60 q 665 183 600 60 q 731 497 731 307 q 665 813 731 688 q 479 938 600 938 z "},"1":{"ha":581,"x_min":0,"x_max":485,"o":"m 404 279 q 418 144 404 196 q 467 47 432 93 l 485 22 l 467 0 l 135 0 l 118 47 l 178 63 q 249 99 232 76 q 267 185 267 122 l 267 854 l 96 746 q 0 840 39 757 l 385 1019 q 440 968 418 1011 l 404 944 l 404 279 z "},"2":{"ha":828,"x_min":51,"x_max":772,"o":"m 547 586 q 586 756 586 667 q 533 892 586 844 q 405 939 479 939 q 276 892 331 939 q 221 763 221 846 q 253 661 221 706 q 263 639 263 647 q 233 626 263 626 q 127 667 169 626 q 85 774 85 708 q 180 953 85 889 q 419 1017 275 1017 q 654 949 563 1017 q 746 757 746 881 q 592 444 746 614 q 246 126 458 297 l 772 126 q 725 0 772 38 l 89 0 l 51 71 q 547 586 465 410 z "},"3":{"ha":828,"x_min":79,"x_max":751,"o":"m 751 256 q 657 53 751 125 q 416 -19 563 -19 q 174 40 269 -19 q 79 206 79 99 q 122 312 79 271 q 228 353 164 353 l 242 353 q 257 336 257 353 q 247 317 257 332 q 215 211 215 274 q 269 108 215 149 q 401 68 324 68 q 540 119 479 68 q 600 264 600 169 q 560 396 600 333 q 487 452 538 431 q 385 474 436 474 q 308 470 333 474 q 267 463 282 467 q 250 460 253 460 q 231 481 231 460 q 243 512 231 503 q 324 533 256 521 q 448 574 392 546 q 529 639 504 603 q 571 774 571 697 q 519 895 571 850 q 399 940 467 940 q 287 902 332 940 q 242 796 242 864 q 272 694 242 739 q 283 676 283 681 q 254 660 283 660 q 148 701 190 660 q 106 807 106 742 q 192 962 106 907 q 403 1017 278 1017 q 625 953 528 1017 q 722 776 722 890 q 517 522 722 600 q 691 425 631 497 q 751 256 751 353 z "},"4":{"ha":844,"x_min":42,"x_max":803,"o":"m 535 185 l 535 225 l 42 225 l 364 997 l 451 997 l 478 975 l 178 313 l 535 313 l 535 501 q 504 628 535 579 l 521 649 l 674 665 l 674 313 l 803 313 q 771 225 803 250 l 675 225 q 736 47 681 121 l 754 22 l 736 0 l 404 0 l 388 47 l 447 63 q 518 99 501 76 q 535 185 535 121 z "},"5":{"ha":828,"x_min":79,"x_max":751,"o":"m 550 417 q 461 478 522 456 q 326 501 400 501 q 165 483 253 501 l 136 535 l 161 997 l 701 997 q 654 871 701 908 l 246 871 l 229 558 q 400 578 317 578 q 663 488 575 578 q 751 267 751 397 q 656 58 751 136 q 415 -19 561 -19 q 174 40 269 -19 q 79 206 79 99 q 122 312 79 271 q 228 353 164 353 l 242 353 q 257 336 257 353 q 247 317 257 332 q 215 211 215 274 q 269 108 215 149 q 401 68 324 68 q 540 121 479 68 q 600 262 600 174 q 550 417 600 350 z "},"6":{"ha":897,"x_min":81,"x_max":797,"o":"m 643 797 q 604 900 643 863 q 496 938 565 938 q 372 894 426 938 q 289 776 318 850 q 231 453 231 635 q 232 388 231 408 q 332 529 260 476 q 528 582 404 582 q 725 503 653 582 q 797 294 797 425 q 710 72 797 164 q 465 -19 624 -19 q 181 117 281 -19 q 81 456 81 253 q 269 939 81 789 q 496 1017 367 1017 q 702 964 625 1017 q 779 835 779 911 q 737 713 779 758 q 631 667 694 667 q 601 683 601 667 l 622 721 q 643 797 643 758 m 629 279 q 629 326 629 279 q 588 430 629 372 q 463 488 547 488 q 332 424 379 488 q 285 271 285 361 q 324 124 285 181 q 449 68 364 68 q 581 127 533 68 q 629 279 629 186 z "},"7":{"ha":689,"x_min":3,"x_max":676,"o":"m 393 278 q 361 140 361 194 q 381 47 361 85 l 393 22 l 367 0 l 111 0 l 94 47 l 126 56 q 211 100 182 71 q 265 193 240 129 l 529 871 l 50 871 q 3 997 3 908 l 676 997 l 393 278 z "},"8":{"ha":856,"x_min":75,"x_max":781,"o":"m 416 1021 q 492 1021 416 1021 q 662 958 568 1021 q 756 759 756 896 q 585 518 756 622 q 781 249 781 418 q 683 51 781 125 q 425 -24 586 -24 q 169 38 264 -24 q 75 231 75 100 q 260 492 75 381 q 140 594 179 536 q 100 739 100 653 q 182 938 100 856 q 416 1021 264 1021 m 222 235 q 274 104 222 154 q 419 54 326 54 q 569 97 511 54 q 628 210 628 139 q 593 319 628 281 q 475 394 558 358 l 326 460 q 222 235 222 350 m 606 767 q 556 894 606 844 q 424 943 506 943 q 292 894 342 943 q 243 785 243 846 q 284 680 243 724 q 426 592 325 636 l 513 553 q 606 767 606 660 z "},"9":{"ha":897,"x_min":107,"x_max":797,"o":"m 446 1017 q 710 865 624 1017 q 797 484 797 713 q 697 118 797 256 q 406 -19 597 -19 q 207 35 285 -19 q 129 175 129 90 q 168 267 129 232 q 268 301 207 301 q 299 285 299 301 q 281 250 299 283 q 264 183 264 217 q 303 93 264 126 q 404 60 342 60 q 551 122 493 60 q 629 272 608 185 q 650 439 650 358 q 649 543 650 519 q 542 426 613 469 q 378 383 472 383 q 178 469 250 383 q 107 682 107 554 q 197 913 107 810 q 446 1017 286 1017 m 274 704 q 274 659 274 704 q 318 549 274 614 q 447 483 363 483 q 581 548 532 483 q 631 703 631 613 q 585 860 631 793 q 454 926 539 926 q 322 860 369 926 q 274 704 274 794 z "}," ":{"ha":382,"x_min":0,"x_max":0,"o":""},"!":{"ha":342,"x_min":83,"x_max":258,"o":"m 117 13 q 101 28 117 13 q 86 71 86 44 q 116 130 86 97 q 172 163 146 163 q 228 131 197 163 q 258 72 258 99 q 228 13 258 44 q 172 -19 197 -19 q 117 13 147 -19 m 83 1031 q 169 1065 114 1065 q 258 1031 225 1065 q 206 338 258 865 q 171 275 199 275 q 136 338 143 275 q 83 1031 83 865 z "},"\"":{"ha":476,"x_min":53,"x_max":424,"o":"m 53 1117 q 124 1158 78 1158 q 194 1117 169 1158 q 151 821 194 1001 q 124 794 144 794 q 96 821 103 794 q 53 1117 53 1000 m 282 1117 q 353 1158 307 1158 q 424 1117 399 1158 q 381 821 424 1001 q 353 794 374 794 q 325 821 332 794 q 282 1117 282 1000 z "},"#":{"ha":967,"x_min":69,"x_max":897,"o":"m 147 589 l 172 681 l 311 681 l 399 997 l 499 997 l 411 681 l 658 681 l 746 997 l 846 997 l 758 681 l 897 681 l 871 589 l 732 589 l 681 403 l 819 403 l 793 311 l 654 311 l 568 0 l 469 0 l 556 311 l 307 311 l 221 0 l 122 0 l 208 311 l 69 311 l 94 403 l 233 403 l 285 589 l 147 589 m 385 589 l 333 403 l 581 403 l 632 589 l 385 589 z "},"$":{"ha":807,"x_min":75,"x_max":707,"o":"m 211 228 q 211 195 211 228 q 266 120 211 163 q 394 78 321 78 q 517 120 467 78 q 567 235 567 163 q 472 375 567 321 q 380 420 431 399 q 278 468 329 442 q 186 527 228 494 q 118 613 144 560 q 92 735 92 665 q 159 910 92 833 q 351 996 226 988 l 351 1178 q 439 1211 378 1211 l 439 993 q 600 933 536 982 q 664 814 664 885 q 621 701 664 743 q 515 660 578 660 q 503 660 515 660 q 486 676 486 660 q 497 694 486 681 q 528 797 528 739 q 485 887 528 854 q 374 919 442 919 q 265 875 307 919 q 224 762 224 831 q 274 642 224 693 q 394 560 324 590 q 536 499 465 531 q 657 408 607 468 q 707 251 707 349 q 633 83 707 154 q 439 1 560 13 l 439 -179 q 351 -212 415 -212 l 351 1 q 154 69 233 11 q 75 225 75 128 q 117 331 75 290 q 224 372 160 372 q 249 368 244 372 q 253 358 253 364 q 242 336 253 351 q 211 228 211 293 z "},"%":{"ha":1414,"x_min":69,"x_max":1344,"o":"m 549 0 l 450 0 l 865 997 l 965 997 l 549 0 m 846 296 q 916 519 846 429 q 1102 608 986 608 q 1281 525 1218 608 q 1344 307 1344 442 q 1274 76 1344 172 q 1083 -19 1203 -19 q 944 30 1000 -19 q 867 147 888 79 q 846 296 846 215 m 1094 543 q 1061 543 1094 543 q 996 473 1029 543 q 963 294 963 403 q 996 115 963 185 q 1094 46 1029 46 q 1192 116 1158 46 q 1226 294 1226 186 q 1192 473 1226 403 q 1094 543 1158 543 m 69 703 q 140 926 69 836 q 326 1015 210 1015 q 505 932 442 1015 q 568 714 568 849 q 497 483 568 579 q 307 388 426 388 q 167 437 224 388 q 90 554 111 486 q 69 703 69 622 m 317 950 q 285 950 317 950 q 219 880 253 950 q 186 701 186 810 q 219 522 186 592 q 317 453 253 453 q 416 523 382 453 q 450 701 450 593 q 416 880 450 810 q 317 950 382 950 z "},"&":{"ha":928,"x_min":42,"x_max":928,"o":"m 585 358 l 532 357 q 438 333 474 351 q 388 300 401 315 q 366 285 374 285 q 349 299 358 285 q 339 329 339 314 q 456 410 339 400 q 676 430 625 424 q 760 463 726 436 q 793 533 793 490 q 774 605 793 576 q 738 649 756 633 q 719 669 719 664 q 781 690 719 690 q 885 651 842 690 q 928 547 928 611 q 653 364 928 386 q 719 215 719 304 q 640 53 719 125 q 397 -19 561 -19 q 138 56 233 -19 q 42 267 42 131 q 107 433 42 361 q 294 536 172 504 q 97 767 97 585 q 188 942 97 868 q 440 1017 278 1017 q 606 969 539 1017 q 674 850 674 922 q 641 763 674 796 q 553 729 608 729 q 524 743 524 729 q 531 757 524 746 q 553 839 553 789 q 519 921 553 889 q 414 953 485 953 q 297 900 343 953 q 250 765 250 847 q 299 631 250 682 q 419 581 347 581 q 433 571 428 581 q 439 550 439 561 q 421 522 439 522 q 256 424 311 494 q 200 269 200 354 q 256 119 200 183 q 405 54 311 54 q 558 104 499 54 q 618 233 618 154 q 585 358 618 313 z "},"'":{"ha":247,"x_min":53,"x_max":194,"o":"m 53 1117 q 124 1158 78 1158 q 194 1117 169 1158 q 151 821 194 1001 q 124 794 144 794 q 96 821 103 794 q 53 1117 53 1000 z "},"(":{"ha":489,"x_min":81,"x_max":446,"o":"m 290 806 q 260 734 290 806 q 231 460 231 663 q 290 114 231 257 q 446 -93 349 -29 l 446 -156 q 175 73 269 -82 q 81 460 81 228 q 175 847 81 692 q 446 1075 269 1001 l 446 1013 q 290 806 349 949 z "},")":{"ha":489,"x_min":43,"x_max":408,"o":"m 199 114 q 229 185 199 114 q 258 460 258 257 q 199 806 258 663 q 43 1013 140 949 l 43 1075 q 314 847 219 1001 q 408 460 408 692 q 314 73 408 228 q 43 -156 219 -82 l 43 -93 q 199 114 140 -29 z "},"*":{"ha":797,"x_min":97,"x_max":700,"o":"m 371 879 q 328 1111 336 1072 q 399 1153 353 1153 q 469 1111 444 1153 q 443 972 457 1050 q 426 879 429 894 q 635 990 601 972 q 700 913 700 975 q 679 857 700 882 q 529 838 601 849 q 443 825 457 826 q 614 663 481 788 q 592 597 614 622 q 544 571 569 571 q 501 579 518 571 q 443 701 478 631 q 399 793 408 771 q 296 581 340 675 q 260 572 276 572 q 202 599 222 572 q 182 663 182 626 q 285 760 228 704 q 353 825 342 815 q 297 833 338 828 q 212 845 257 839 q 119 857 167 851 q 97 910 97 881 q 115 963 97 940 q 163 992 133 985 q 294 919 218 960 l 371 879 z "},"+":{"ha":863,"x_min":138,"x_max":725,"o":"m 138 443 l 138 549 l 379 549 l 379 790 l 483 790 l 483 549 l 725 549 l 725 443 l 483 443 l 483 203 l 379 203 l 379 443 l 138 443 z "},",":{"ha":265,"x_min":10,"x_max":218,"o":"m 128 165 q 218 72 218 165 q 190 -9 218 33 q 104 -112 161 -51 l 50 -171 l 10 -144 l 74 -19 q 90 40 90 14 q 58 89 90 65 l 33 106 l 26 139 l 50 149 q 128 165 93 165 z "},"-":{"ha":493,"x_min":46,"x_max":447,"o":"m 411 364 l 46 350 q 82 447 46 418 l 447 461 q 411 364 447 392 z "},".":{"ha":265,"x_min":46,"x_max":218,"o":"m 76 13 q 61 28 76 13 q 46 71 46 44 q 76 130 46 97 q 131 163 106 163 q 188 131 157 163 q 218 72 218 99 q 188 13 218 44 q 132 -19 157 -19 q 76 13 107 -19 z "},"/":{"ha":515,"x_min":0,"x_max":515,"o":"m 99 -87 l 0 -87 l 415 1085 l 515 1085 l 99 -87 z "},":":{"ha":265,"x_min":46,"x_max":218,"o":"m 76 13 q 61 28 76 13 q 46 71 46 44 q 76 130 46 97 q 131 163 106 163 q 188 131 157 163 q 218 72 218 99 q 188 13 218 44 q 132 -19 157 -19 q 76 13 107 -19 m 76 513 q 61 528 76 513 q 46 571 46 544 q 76 630 46 597 q 131 663 106 663 q 188 631 157 663 q 218 572 218 599 q 188 513 218 544 q 132 481 157 481 q 76 513 107 481 z "},";":{"ha":265,"x_min":10,"x_max":218,"o":"m 128 165 q 218 72 218 165 q 190 -9 218 33 q 104 -112 161 -51 l 50 -171 l 10 -144 l 74 -19 q 90 40 90 14 q 58 89 90 65 l 33 106 l 26 139 l 50 149 q 128 165 93 165 m 76 513 q 61 528 76 513 q 46 571 46 544 q 76 630 46 597 q 131 663 106 663 q 188 631 157 663 q 218 572 218 599 q 188 513 218 544 q 132 481 157 481 q 76 513 107 481 z "},"<":{"ha":863,"x_min":138,"x_max":725,"o":"m 138 443 l 138 549 l 725 786 l 725 681 l 256 496 l 725 311 l 725 206 l 138 443 z "},"=":{"ha":863,"x_min":138,"x_max":725,"o":"m 138 293 l 138 399 l 725 399 l 725 293 l 138 293 m 138 593 l 138 699 l 725 699 l 725 593 l 138 593 z "},">":{"ha":863,"x_min":138,"x_max":725,"o":"m 725 549 l 725 443 l 138 206 l 138 311 l 607 496 l 138 681 l 138 786 l 725 549 z "},"?":{"ha":747,"x_min":71,"x_max":658,"o":"m 269 13 q 254 28 269 13 q 239 71 239 44 q 269 130 239 97 q 324 163 299 163 q 381 131 350 163 q 411 72 411 99 q 381 13 411 44 q 325 -19 350 -19 q 269 13 300 -19 m 229 386 q 447 623 393 529 q 500 802 500 717 q 454 931 500 888 q 340 975 408 975 q 235 942 271 975 q 200 865 200 910 q 208 794 200 819 q 225 756 217 769 q 233 740 233 743 q 207 725 233 725 q 109 763 147 725 q 71 861 71 801 q 153 1000 71 946 q 362 1054 235 1054 q 574 990 489 1054 q 658 811 658 925 q 463 476 658 664 q 383 395 408 425 q 347 326 358 365 l 340 300 l 314 300 l 229 386 z "},"@":{"ha":1239,"x_min":76,"x_max":1163,"o":"m 628 628 q 504 556 549 628 q 460 401 460 483 q 490 276 460 319 q 567 232 521 232 q 693 318 633 232 l 717 596 q 628 628 675 628 m 1163 438 q 1131 261 1163 347 q 1028 113 1099 175 q 872 50 957 50 q 741 98 788 50 q 694 233 694 146 q 496 126 604 126 q 372 186 421 126 q 324 356 324 246 q 408 613 324 517 q 629 708 493 708 q 756 695 669 708 q 860 681 842 682 l 871 664 l 858 642 q 842 601 843 621 q 811 217 811 253 q 832 152 811 182 q 883 122 853 122 q 981 207 933 122 q 1028 442 1028 292 q 929 742 1028 625 q 658 858 831 858 q 336 710 463 858 q 210 344 210 561 q 309 43 210 160 q 582 -74 408 -74 q 832 -11 729 -74 l 865 -69 q 575 -153 726 -153 q 214 -10 351 -153 q 76 347 76 133 q 248 763 76 589 q 665 938 419 938 q 1025 794 888 938 q 1163 438 1163 651 z "},"A":{"ha":981,"x_min":-22,"x_max":965,"o":"m 650 56 q 698 78 683 64 q 713 115 713 92 q 697 185 713 139 l 631 379 l 310 379 l 276 278 q 244 133 244 182 q 264 47 244 85 l 276 22 l 250 0 l -6 0 l -22 47 l 10 56 q 90 96 65 71 q 138 185 115 121 l 356 813 q 371 882 371 858 q 356 919 371 906 q 308 942 342 933 l 276 950 l 293 997 l 561 997 l 840 192 q 889 94 863 128 q 965 22 915 61 l 947 0 l 635 0 l 618 47 l 650 56 m 468 854 l 339 465 l 601 465 l 468 854 z "},"B":{"ha":904,"x_min":56,"x_max":828,"o":"m 776 743 q 740 603 776 665 q 631 506 703 540 q 776 413 724 475 q 828 274 828 350 q 742 74 828 147 q 467 0 656 0 l 79 0 l 63 47 l 94 56 q 165 96 147 71 q 183 185 183 121 l 183 871 q 153 904 183 904 l 72 904 l 56 956 q 213 998 115 979 q 400 1017 310 1017 q 683 940 590 1017 q 776 743 776 864 m 321 875 l 321 254 q 378 97 321 132 q 475 72 422 72 q 628 130 572 72 q 683 274 683 188 q 623 417 683 361 q 463 474 563 474 q 380 488 408 474 q 351 524 351 501 q 371 547 351 547 q 394 542 372 547 q 440 538 415 538 q 587 593 535 538 q 639 738 639 649 q 580 883 639 828 q 421 939 521 939 q 321 875 321 939 z "},"C":{"ha":857,"x_min":49,"x_max":821,"o":"m 497 1017 q 722 960 635 1017 q 810 813 810 903 q 767 696 810 742 q 661 650 725 650 q 632 667 632 650 q 642 686 632 671 q 674 797 674 735 q 625 899 674 858 q 498 939 576 939 q 360 900 419 939 q 269 794 301 861 q 206 494 206 668 q 288 198 206 319 q 506 76 369 76 q 767 201 681 76 q 780 207 771 207 q 805 194 789 207 q 821 172 821 181 q 817 157 821 164 q 488 -19 697 -19 q 163 126 278 -19 q 49 498 49 272 q 164 870 49 724 q 497 1017 279 1017 z "},"D":{"ha":1018,"x_min":49,"x_max":969,"o":"m 508 0 l 72 0 l 56 47 l 88 56 q 154 92 132 68 q 176 169 176 117 l 176 871 q 146 904 176 904 l 65 904 l 49 956 q 221 998 115 979 q 436 1017 326 1017 q 640 989 546 1017 q 796 914 735 961 q 897 800 857 867 q 969 497 969 675 q 851 140 969 279 q 508 0 732 0 m 314 875 l 314 243 q 355 108 314 144 q 464 71 396 71 q 818 500 818 71 q 731 803 818 676 q 615 902 688 865 q 450 939 543 939 q 314 875 314 939 z "},"E":{"ha":847,"x_min":63,"x_max":760,"o":"m 432 467 l 314 467 l 314 185 q 331 100 314 121 q 403 79 349 79 l 553 79 q 656 103 626 79 q 704 203 685 128 l 713 235 l 760 218 l 760 -19 l 732 -35 l 721 -19 q 663 0 706 0 l 78 0 l 63 44 l 92 53 q 160 92 143 68 q 176 175 176 115 l 176 718 q 163 853 176 801 q 114 950 149 904 l 96 975 l 114 997 l 539 997 q 697 1026 658 997 l 722 1044 l 744 1026 l 744 779 l 697 763 l 689 794 q 640 894 669 869 q 538 918 611 918 l 403 918 q 331 897 349 918 q 314 813 314 876 l 314 546 l 490 546 q 600 610 554 546 l 611 625 l 639 610 l 639 372 l 592 356 l 583 388 q 540 451 571 435 q 432 467 508 467 z "},"F":{"ha":760,"x_min":63,"x_max":697,"o":"m 490 918 l 369 918 q 298 897 315 918 q 281 813 281 876 l 281 532 l 443 532 q 553 596 507 532 l 564 611 l 592 596 l 592 358 l 544 342 l 536 374 q 492 437 524 421 q 385 453 461 453 l 281 453 l 281 185 q 299 96 281 121 q 369 56 317 71 l 401 47 l 385 0 l 81 0 l 63 22 l 81 47 q 129 144 115 93 q 143 279 143 196 l 143 718 q 129 853 143 801 q 81 950 115 904 l 63 975 l 81 997 l 492 997 q 650 1026 611 997 l 675 1044 l 697 1026 l 697 779 l 650 763 l 642 794 q 593 894 622 869 q 490 918 564 918 z "},"G":{"ha":960,"x_min":49,"x_max":929,"o":"m 724 -17 l 724 114 q 479 24 615 24 q 160 164 271 24 q 49 522 49 304 q 253 947 49 813 q 507 1017 358 1017 q 749 956 656 1017 q 843 799 843 896 q 801 682 843 728 q 694 636 758 636 q 669 639 674 636 q 665 649 665 642 q 675 672 665 657 q 707 785 707 721 q 652 894 707 850 q 519 939 597 939 q 387 913 442 939 q 298 846 332 888 q 242 750 264 804 q 199 529 199 647 q 278 232 199 351 q 494 113 358 113 q 724 207 629 113 l 724 278 q 706 367 724 342 q 635 407 688 392 l 603 415 l 619 463 l 911 463 l 929 440 l 911 415 q 863 318 876 369 q 849 183 849 267 l 849 22 q 518 -386 849 -386 q 331 -327 397 -386 q 265 -193 265 -268 q 313 -69 265 -118 q 442 -19 360 -19 q 468 -35 468 -19 q 451 -57 468 -40 q 417 -107 433 -74 q 400 -190 400 -140 q 438 -277 400 -240 q 542 -314 476 -314 q 678 -244 632 -314 q 724 -17 724 -175 z "},"H":{"ha":1082,"x_min":56,"x_max":1019,"o":"m 768 185 l 768 464 l 314 464 l 314 175 q 331 92 314 115 q 399 53 347 68 l 428 44 l 413 0 l 72 0 l 56 47 l 88 56 q 158 96 140 71 q 176 185 176 121 l 176 813 q 158 901 176 876 q 88 942 140 926 l 56 950 l 72 997 l 376 997 l 394 975 l 376 950 q 328 853 342 904 q 314 718 314 801 l 314 549 l 768 549 l 768 813 q 750 901 768 876 q 679 942 732 926 l 647 950 l 664 997 l 968 997 l 986 975 l 968 950 q 919 853 933 904 q 906 718 906 801 l 906 175 q 922 92 906 115 q 990 53 939 68 l 1019 44 l 1004 0 l 664 0 l 647 47 l 679 56 q 750 96 732 71 q 768 185 768 121 z "},"I":{"ha":490,"x_min":56,"x_max":428,"o":"m 176 185 l 176 813 q 158 901 176 876 q 88 942 140 926 l 56 950 l 72 997 l 376 997 l 394 975 l 376 950 q 328 853 342 904 q 314 718 314 801 l 314 175 q 331 92 314 115 q 399 53 347 68 l 428 44 l 413 0 l 72 0 l 56 47 l 88 56 q 158 96 140 71 q 176 185 176 121 z "},"J":{"ha":651,"x_min":-28,"x_max":596,"o":"m 378 243 l 378 813 q 360 901 378 876 q 289 942 342 926 l 257 950 l 274 997 l 578 997 l 596 975 l 578 950 q 529 853 543 904 q 515 718 515 801 l 515 328 q 438 64 515 147 q 233 -19 361 -19 q 38 40 104 -19 q -28 174 -28 99 q 19 298 -28 249 q 149 347 67 347 q 175 332 175 347 q 158 310 175 326 q 124 260 142 293 q 107 176 107 226 q 141 90 107 126 q 235 53 175 53 q 378 243 378 53 z "},"K":{"ha":928,"x_min":56,"x_max":904,"o":"m 176 185 l 176 813 q 158 901 176 876 q 88 942 140 926 l 56 950 l 72 997 l 376 997 l 394 975 l 376 950 q 328 853 342 904 q 314 718 314 801 l 314 175 q 331 92 314 115 q 399 53 347 68 l 428 44 l 413 0 l 72 0 l 56 47 l 88 56 q 158 96 140 71 q 176 185 176 121 m 774 100 q 825 57 797 57 q 881 76 853 57 l 904 36 q 781 -19 847 -19 q 671 14 714 -19 q 590 115 628 47 l 425 418 q 354 481 401 460 q 347 496 347 483 q 375 529 347 529 q 408 528 397 529 l 597 810 q 626 883 626 856 q 608 950 626 910 l 596 975 l 622 997 l 874 997 l 890 950 l 858 942 q 750 867 788 922 l 500 506 q 596 415 560 478 l 774 100 z "},"L":{"ha":764,"x_min":56,"x_max":731,"o":"m 314 718 l 314 185 q 331 100 314 121 q 403 79 349 79 l 524 79 q 626 103 597 79 q 675 203 656 128 l 683 235 l 731 218 l 731 -19 l 703 -35 l 692 -19 q 633 0 676 0 l 78 0 l 63 44 l 92 53 q 160 92 143 68 q 176 175 176 115 l 176 813 q 158 901 176 876 q 88 942 140 926 l 56 950 l 72 997 l 376 997 l 394 975 l 376 950 q 328 853 342 904 q 314 718 314 801 z "},"M":{"ha":1279,"x_min":21,"x_max":1217,"o":"m 910 56 q 972 91 954 69 q 989 144 989 113 q 986 207 989 176 l 946 786 l 656 100 l 581 100 l 290 786 l 260 358 q 251 222 251 261 q 301 47 251 119 l 318 22 l 297 0 l 36 0 l 21 47 l 53 56 q 127 97 107 72 q 151 185 147 122 l 189 735 q 196 840 196 790 q 178 910 196 889 q 115 942 161 931 l 83 950 l 99 997 l 351 997 l 638 299 l 932 997 l 1132 997 l 1153 975 l 1136 950 q 1086 775 1086 878 q 1093 650 1086 754 l 1121 269 q 1149 126 1128 183 q 1217 22 1171 68 l 1199 0 l 894 0 l 878 47 l 910 56 z "},"N":{"ha":1082,"x_min":47,"x_max":996,"o":"m 265 279 q 279 144 265 196 q 328 47 293 93 l 346 22 l 328 0 l 64 0 l 47 47 l 79 56 q 150 96 132 71 q 168 185 168 121 l 168 813 q 150 901 168 876 q 79 942 132 926 l 47 950 l 64 997 l 288 997 l 818 210 l 818 813 q 800 901 818 876 q 729 942 782 926 l 697 950 l 714 997 l 978 997 l 996 975 l 978 950 q 929 853 943 904 q 915 718 915 801 l 915 122 q 935 47 915 75 l 953 22 l 935 0 l 794 0 l 265 785 l 265 279 z "},"O":{"ha":1018,"x_min":49,"x_max":969,"o":"m 756 779 q 661 894 724 850 q 515 938 599 938 q 283 808 368 938 q 199 490 199 678 q 278 182 199 301 q 503 63 357 63 q 733 185 649 63 q 818 476 818 307 q 756 779 818 644 m 167 126 q 108 198 167 126 q 49 497 49 271 q 167 870 49 724 q 508 1017 285 1017 q 850 870 731 1017 q 969 497 969 724 q 850 126 969 271 q 508 -19 731 -19 q 167 126 285 -19 z "},"P":{"ha":828,"x_min":49,"x_max":800,"o":"m 314 875 l 314 279 q 328 144 314 194 q 376 47 342 93 l 394 22 l 376 0 l 72 0 l 56 47 l 88 56 q 158 96 140 69 q 176 185 176 122 l 176 871 q 146 904 176 904 l 65 904 l 49 956 q 206 998 108 979 q 394 1017 304 1017 q 700 924 600 1017 q 800 689 800 832 q 715 454 800 546 q 467 363 631 363 q 380 375 415 363 q 344 416 344 388 q 367 444 344 444 q 389 440 368 444 q 435 435 410 435 q 597 501 539 435 q 656 681 656 568 q 594 867 656 794 q 423 939 532 939 q 314 875 314 939 z "},"Q":{"ha":1018,"x_min":49,"x_max":1088,"o":"m 167 126 q 108 198 167 126 q 49 497 49 271 q 167 870 49 724 q 508 1017 285 1017 q 850 870 731 1017 q 969 497 969 724 q 922 244 969 357 q 783 64 875 131 l 853 -90 q 999 -197 900 -197 q 1049 -188 1024 -197 q 1075 -179 1074 -179 q 1088 -193 1088 -179 q 1049 -276 1088 -243 q 958 -308 1010 -308 q 731 -111 818 -308 l 676 7 q 508 -19 597 -19 q 167 126 285 -19 m 818 493 q 756 779 818 644 q 661 894 724 850 q 515 938 599 938 q 283 808 368 938 q 199 485 199 678 q 282 176 199 292 q 279 204 279 186 q 326 313 279 274 q 454 353 374 353 q 725 175 613 353 q 818 493 818 299 m 339 185 q 387 93 339 124 q 505 63 435 63 q 636 97 575 63 q 537 230 592 188 q 436 272 482 272 q 365 249 390 272 q 339 185 339 225 z "},"R":{"ha":889,"x_min":21,"x_max":863,"o":"m 863 36 q 736 -19 806 -19 q 625 19 667 -19 q 543 143 583 58 l 438 367 q 406 407 425 394 q 343 436 388 419 q 317 474 317 446 q 339 501 317 501 q 361 497 340 501 q 407 492 382 492 q 569 551 511 492 q 628 710 628 610 q 566 874 628 810 q 395 939 504 939 q 286 875 286 939 l 286 279 q 300 145 286 196 q 349 47 314 94 l 367 22 l 349 0 l 44 0 l 28 47 l 60 56 q 131 96 113 69 q 149 185 149 122 l 149 871 q 118 904 149 904 l 38 904 l 21 956 q 178 998 81 979 q 367 1017 276 1017 q 672 932 572 1017 q 772 713 772 847 q 715 533 772 610 q 547 431 658 457 q 603 363 578 410 l 732 100 q 782 57 753 57 q 839 76 811 57 l 863 36 z "},"S":{"ha":794,"x_min":63,"x_max":725,"o":"m 206 217 q 206 183 206 217 q 261 104 206 150 q 401 58 317 58 q 535 100 486 58 q 585 206 585 142 q 557 312 585 269 q 485 381 529 354 q 388 431 442 407 q 281 482 335 456 q 184 541 228 508 q 113 626 140 574 q 85 747 85 679 q 163 938 85 858 q 383 1017 242 1017 q 613 960 525 1017 q 700 813 700 903 q 658 696 700 742 q 551 650 615 650 q 522 667 522 650 q 533 686 522 671 q 564 797 564 735 q 515 899 564 858 q 386 939 467 939 q 261 892 306 939 q 217 788 217 846 q 244 692 217 731 q 317 628 272 654 q 417 578 363 603 q 525 526 471 554 q 624 465 579 499 q 697 376 669 431 q 725 251 725 321 q 642 54 725 128 q 407 -19 560 -19 q 158 43 254 -19 q 63 204 63 106 q 108 321 63 275 q 221 367 153 367 q 250 350 250 367 q 239 331 250 347 q 206 217 206 283 z "},"T":{"ha":826,"x_min":28,"x_max":799,"o":"m 592 918 l 529 918 q 491 898 500 918 q 482 813 482 878 l 482 185 q 500 96 482 121 q 571 56 518 71 l 603 47 l 586 0 l 282 0 l 264 22 l 282 47 q 331 144 317 93 q 344 279 344 196 l 344 813 q 335 898 344 878 q 297 918 326 918 l 235 918 q 132 894 161 918 q 83 794 103 869 l 75 763 l 28 779 l 28 1026 l 50 1044 l 75 1026 q 233 997 114 997 l 593 997 q 751 1026 713 997 l 776 1044 l 799 1026 l 799 779 l 751 763 l 743 794 q 694 894 724 869 q 592 918 665 918 z "},"U":{"ha":1026,"x_min":33,"x_max":958,"o":"m 292 718 l 292 306 q 361 132 292 196 q 536 68 431 68 q 711 132 642 68 q 781 306 781 196 l 781 813 q 763 901 781 876 q 692 942 744 926 l 660 950 l 676 997 l 940 997 l 958 975 l 940 950 q 892 853 906 904 q 878 718 878 801 l 878 306 q 778 61 878 142 q 517 -19 678 -19 q 255 61 356 -19 q 154 306 154 142 l 154 813 q 136 901 154 876 q 65 942 118 926 l 33 950 l 50 997 l 354 997 l 372 975 l 354 950 q 306 853 319 904 q 292 718 292 801 z "},"V":{"ha":947,"x_min":7,"x_max":926,"o":"m 322 942 q 274 919 289 933 q 260 882 260 906 q 275 813 260 858 l 501 115 l 696 719 q 722 849 722 803 q 660 942 719 925 l 628 950 l 644 997 l 908 997 l 926 975 l 906 950 q 829 811 854 889 l 561 0 l 403 0 l 132 806 q 85 903 111 869 q 7 975 58 936 l 25 997 l 338 997 l 354 950 l 322 942 z "},"W":{"ha":1510,"x_min":7,"x_max":1489,"o":"m 322 942 q 274 919 289 933 q 260 882 260 906 q 275 813 260 858 l 501 115 l 708 761 l 694 806 q 647 903 674 869 q 569 975 621 936 l 588 997 l 900 997 l 917 950 l 885 942 q 837 919 851 933 q 822 882 822 906 q 838 813 822 858 l 1064 115 l 1258 719 q 1285 849 1285 803 q 1222 942 1282 925 l 1190 950 l 1207 997 l 1471 997 l 1489 975 l 1468 950 q 1392 811 1417 889 l 1124 0 l 965 0 l 761 606 l 561 0 l 403 0 l 132 806 q 85 903 111 869 q 7 975 58 936 l 25 997 l 338 997 l 354 950 l 322 942 z "},"X":{"ha":944,"x_min":14,"x_max":931,"o":"m 633 810 q 663 883 663 856 q 644 950 663 910 l 632 975 l 658 997 l 914 997 l 931 950 l 899 942 q 790 867 828 922 l 547 515 l 797 161 q 918 22 865 65 l 900 0 l 571 0 l 554 47 l 586 56 q 640 111 640 71 q 610 197 640 151 l 458 410 l 311 188 q 282 115 282 142 q 300 47 282 88 l 313 22 l 286 0 l 31 0 l 14 47 l 46 56 q 154 131 117 75 l 403 490 l 165 828 q 39 975 93 928 l 57 997 l 386 997 l 403 950 l 371 942 q 317 886 317 926 q 347 800 317 846 l 490 596 l 633 810 z "},"Y":{"ha":869,"x_min":7,"x_max":835,"o":"m 610 811 q 626 869 626 842 q 609 915 626 896 q 568 942 592 935 l 536 950 l 553 997 l 817 997 l 835 975 l 814 950 q 715 803 765 892 l 500 421 l 500 185 q 519 96 500 122 q 592 56 539 69 l 624 47 l 607 0 l 303 0 l 285 22 l 303 47 q 353 147 338 96 q 368 279 368 197 l 368 410 l 146 800 q 7 975 78 921 l 25 997 l 338 997 l 354 950 l 322 942 q 274 919 289 933 q 260 887 260 906 q 303 793 260 868 l 453 531 l 610 811 z "},"Z":{"ha":819,"x_min":28,"x_max":792,"o":"m 285 997 l 792 997 l 243 79 l 557 79 q 660 103 631 79 q 708 203 689 128 l 717 235 l 764 218 l 764 -19 l 736 -35 l 725 -19 q 667 0 710 0 l 28 0 l 579 918 l 286 918 q 183 894 213 918 q 135 794 154 869 l 126 763 l 79 779 l 79 1026 l 101 1044 l 126 1026 q 285 997 165 997 z "},"[":{"ha":538,"x_min":175,"x_max":500,"o":"m 175 -156 l 175 1075 l 500 1075 l 500 1008 l 389 992 q 330 969 347 985 q 313 918 313 954 l 313 1 q 330 -50 313 -35 q 389 -72 347 -65 l 500 -89 l 500 -156 l 175 -156 z "},"\\":{"ha":515,"x_min":0,"x_max":515,"o":"m 515 -87 l 417 -87 l 0 1085 l 100 1085 l 515 -87 z "},"]":{"ha":538,"x_min":38,"x_max":363,"o":"m 363 1075 l 363 -156 l 38 -156 l 38 -89 l 149 -72 q 208 -50 190 -65 q 225 1 225 -35 l 225 918 q 208 969 225 954 q 149 992 190 985 l 38 1008 l 38 1075 l 363 1075 z "},"^":{"ha":863,"x_min":133,"x_max":728,"o":"m 371 997 l 490 997 l 728 553 l 615 553 l 429 907 l 246 553 l 133 553 l 371 997 z "},"_":{"ha":493,"x_min":-36,"x_max":529,"o":"m -36 -117 q 0 -19 -36 -49 l 529 -19 q 493 -117 529 -89 l -36 -117 z "},"`":{"ha":400,"x_min":75,"x_max":350,"o":"m 153 868 q 75 967 75 906 q 133 1056 75 1028 l 350 839 l 310 790 l 153 868 z "},"a":{"ha":839,"x_min":63,"x_max":818,"o":"m 311 -19 q 135 69 207 -19 q 63 328 63 157 q 160 603 63 499 q 422 708 257 708 q 565 692 469 708 q 700 674 660 676 l 715 656 l 699 631 q 681 576 681 603 l 681 122 q 722 79 681 79 q 792 104 756 79 l 818 68 q 664 -19 739 -19 q 582 15 607 -19 q 557 128 557 50 q 311 -19 451 -19 m 421 632 q 264 556 319 632 q 208 347 208 481 q 253 150 208 213 q 367 88 299 88 q 557 214 483 88 l 557 589 q 421 632 493 632 z "},"b":{"ha":819,"x_min":35,"x_max":757,"o":"m 418 631 q 358 622 385 631 q 326 613 331 613 q 315 622 321 613 q 308 646 308 632 q 321 668 308 660 q 461 708 385 708 q 674 615 592 708 q 757 363 757 521 q 654 92 757 204 q 388 -19 551 -19 q 136 68 224 -19 l 136 936 q 108 967 136 967 l 47 967 l 35 1003 q 126 1063 75 1039 q 208 1086 178 1086 q 263 1042 263 1086 l 263 103 q 413 58 325 58 q 556 135 501 58 q 610 342 610 213 q 556 551 610 472 q 418 631 503 631 z "},"c":{"ha":707,"x_min":63,"x_max":651,"o":"m 604 143 q 618 147 608 147 q 640 135 628 147 q 651 111 651 122 q 647 96 651 100 q 399 -19 547 -19 q 157 83 251 -19 q 63 348 63 186 q 154 609 63 510 q 399 708 246 708 q 574 656 506 708 q 643 522 643 604 q 605 424 643 463 q 507 386 567 386 q 481 401 481 386 q 489 417 481 404 q 514 514 514 457 q 478 603 514 571 q 383 636 443 636 q 256 558 304 636 q 207 353 207 481 q 265 149 207 225 q 422 74 322 74 q 604 143 521 74 z "},"d":{"ha":839,"x_min":63,"x_max":818,"o":"m 421 632 q 264 556 319 632 q 208 347 208 481 q 253 150 208 213 q 367 88 299 88 q 557 214 483 88 l 557 589 q 421 632 493 632 m 681 1042 l 681 122 q 722 79 681 79 q 792 104 756 79 l 818 68 q 664 -19 739 -19 q 582 15 607 -19 q 557 128 557 50 q 311 -19 451 -19 q 135 69 207 -19 q 63 328 63 157 q 160 603 63 499 q 422 708 257 708 q 554 690 494 708 l 554 936 q 526 967 554 967 l 465 967 l 453 1003 q 545 1063 493 1039 q 626 1086 597 1086 q 681 1042 681 1086 z "},"e":{"ha":735,"x_min":63,"x_max":663,"o":"m 382 -19 q 149 78 236 -19 q 63 340 63 175 q 161 606 63 504 q 422 708 260 708 q 597 649 536 708 q 658 500 658 589 q 587 340 658 411 q 393 269 515 269 q 294 286 349 269 q 240 335 240 303 q 247 356 240 346 q 258 365 253 365 q 290 356 263 365 q 350 347 317 347 q 480 394 433 347 q 526 501 526 442 q 492 599 526 560 q 394 639 457 639 q 256 560 306 639 q 206 347 206 482 q 258 142 206 213 q 422 72 311 72 q 614 151 533 72 q 628 157 619 157 q 650 144 638 157 q 663 120 663 131 q 657 104 663 110 q 382 -19 550 -19 z "},"f":{"ha":464,"x_min":-146,"x_max":617,"o":"m 410 1086 q 558 1043 500 1086 q 617 936 617 1000 q 578 834 617 872 q 481 796 540 796 q 454 811 454 796 q 463 828 454 814 q 488 918 488 867 q 463 997 488 969 q 394 1024 438 1024 q 276 796 276 1024 l 276 690 l 471 690 q 439 603 471 628 l 276 603 l 276 -18 q 213 -247 276 -162 q 26 -331 150 -331 q -97 -292 -49 -331 q -146 -195 -146 -254 q -107 -100 -146 -136 q -10 -64 -68 -64 q 17 -79 17 -64 q 7 -94 17 -83 q -22 -176 -22 -131 q -1 -247 -22 -222 q 58 -271 21 -271 q 124 -234 96 -271 q 151 -125 151 -197 l 151 603 l 29 603 q 35 651 29 640 q 63 668 40 663 l 151 690 q 217 981 151 875 q 410 1086 282 1086 z "},"g":{"ha":836,"x_min":83,"x_max":736,"o":"m 442 632 q 285 556 340 632 q 229 357 229 481 q 274 181 229 233 q 388 128 319 128 q 578 254 504 128 l 578 589 q 442 632 514 632 m 411 -314 q 538 -243 497 -314 q 578 -53 578 -172 l 578 168 q 332 21 472 21 q 156 99 228 21 q 83 318 83 176 q 181 603 83 499 q 443 708 278 708 q 585 692 490 708 q 721 674 681 676 l 736 656 l 719 631 q 701 576 701 603 l 701 -31 q 619 -294 701 -201 q 393 -386 536 -386 q 217 -327 279 -386 q 156 -193 156 -268 q 203 -69 156 -118 q 332 -19 250 -19 q 358 -35 358 -19 q 342 -57 358 -40 q 308 -107 325 -74 q 290 -190 290 -140 q 323 -277 290 -240 q 411 -314 356 -314 z "},"h":{"ha":888,"x_min":49,"x_max":860,"o":"m 150 154 l 150 936 q 122 967 150 967 l 61 967 l 49 1003 q 140 1063 89 1039 q 222 1086 192 1086 q 276 1042 276 1086 l 276 501 q 385 650 313 592 q 547 708 457 708 q 680 649 638 708 q 722 456 722 589 l 722 119 q 764 72 722 72 q 833 101 797 72 l 860 65 q 704 -22 781 -22 q 622 13 647 -22 q 597 125 597 47 l 597 456 q 570 565 597 529 q 478 600 543 600 q 332 495 388 600 q 276 222 276 390 q 321 43 276 106 l 338 21 l 321 0 l 78 0 l 63 43 l 92 50 q 138 80 126 58 q 150 154 150 101 z "},"i":{"ha":433,"x_min":49,"x_max":413,"o":"m 158 856 q 143 872 158 856 q 128 914 128 888 q 158 973 128 940 q 213 1006 188 1006 q 269 974 239 1006 q 300 915 300 942 q 269 856 300 888 q 214 824 239 824 q 158 856 189 824 m 317 75 q 386 104 350 75 l 413 68 q 257 -19 333 -19 q 175 15 200 -19 q 150 128 150 50 l 150 558 q 122 589 150 589 l 61 589 l 49 625 q 140 685 89 661 q 222 708 192 708 q 276 664 276 708 l 275 122 q 317 75 275 75 z "},"j":{"ha":404,"x_min":-154,"x_max":293,"o":"m 151 856 q 136 872 151 856 q 121 914 121 888 q 151 973 121 940 q 206 1006 181 1006 q 263 974 232 1006 q 293 915 293 942 q 263 856 293 888 q 207 824 232 824 q 151 856 182 824 m 143 -181 l 143 558 q 115 589 143 589 l 54 589 l 42 625 q 134 685 82 661 q 215 708 186 708 q 269 664 269 708 l 269 -74 q 206 -302 269 -218 q 18 -386 143 -386 q -106 -348 -57 -386 q -154 -251 -154 -310 q -115 -156 -154 -192 q -18 -119 -76 -119 q 8 -135 8 -119 q -1 -150 8 -139 q -31 -232 -31 -186 q -9 -302 -31 -278 q 50 -326 13 -326 q 115 -290 88 -326 q 143 -181 143 -253 z "},"k":{"ha":811,"x_min":49,"x_max":783,"o":"m 351 328 q 325 359 325 335 q 346 383 325 383 q 374 377 347 383 q 435 371 401 371 q 552 415 510 371 q 594 507 594 458 q 570 584 594 556 q 501 613 546 613 q 338 505 399 613 q 276 222 276 397 q 321 43 276 101 l 338 21 l 321 0 l 78 0 l 63 43 l 92 50 q 138 80 126 58 q 150 154 150 101 l 150 936 q 122 967 150 967 l 61 967 l 49 1003 q 140 1063 89 1039 q 222 1086 192 1086 q 276 1042 276 1086 l 276 501 q 381 651 311 593 q 535 708 451 708 q 669 656 619 708 q 719 526 719 603 q 664 387 719 450 q 514 313 608 324 l 622 107 q 680 68 642 68 q 754 104 718 68 l 783 68 q 635 -19 719 -19 q 542 13 575 -19 q 467 128 510 46 l 364 324 l 351 328 z "},"l":{"ha":419,"x_min":35,"x_max":399,"o":"m 303 75 q 372 104 336 75 l 399 68 q 243 -19 319 -19 q 161 15 186 -19 q 136 128 136 50 l 136 936 q 108 967 136 967 l 47 967 l 35 1003 q 126 1063 75 1039 q 208 1086 178 1086 q 263 1042 263 1086 l 261 122 q 303 75 261 75 z "},"m":{"ha":1307,"x_min":56,"x_max":1279,"o":"m 283 222 q 328 43 283 106 l 344 21 l 328 0 l 85 0 l 69 43 l 99 50 q 145 80 133 58 q 157 154 157 101 l 157 544 q 129 575 157 575 l 68 575 l 56 611 q 148 671 96 647 q 229 694 200 694 q 283 650 283 694 l 283 501 q 389 651 319 593 q 539 708 458 708 q 663 658 619 708 q 713 501 706 608 q 818 651 749 593 q 972 708 888 708 q 1099 649 1057 708 q 1142 458 1142 589 l 1142 122 q 1183 75 1142 75 q 1253 104 1215 75 l 1279 68 q 1124 -19 1200 -19 q 1042 15 1067 -19 q 1017 128 1017 50 l 1017 458 q 914 600 1017 600 q 771 500 826 600 q 713 239 715 400 l 713 222 q 724 108 713 150 q 774 21 736 65 l 757 0 l 588 0 l 588 458 q 485 600 588 600 q 339 495 394 600 q 283 222 283 390 z "},"n":{"ha":894,"x_min":56,"x_max":867,"o":"m 283 222 q 328 43 283 106 l 344 21 l 328 0 l 85 0 l 69 43 l 99 50 q 145 80 133 58 q 157 154 157 101 l 157 544 q 129 575 157 575 l 68 575 l 56 611 q 148 671 96 647 q 229 694 200 694 q 283 650 283 694 l 283 501 q 392 650 319 592 q 552 708 464 708 q 685 649 640 708 q 729 458 729 589 l 729 122 q 771 75 729 75 q 840 104 803 75 l 867 68 q 711 -19 788 -19 q 629 15 654 -19 q 604 128 604 50 l 604 458 q 485 600 604 600 q 339 495 394 600 q 283 222 283 390 z "},"o":{"ha":803,"x_min":63,"x_max":740,"o":"m 556 529 q 497 606 536 576 q 406 636 458 636 q 262 555 317 636 q 207 342 207 474 q 258 133 207 211 q 397 56 310 56 q 540 134 485 56 q 594 326 594 213 q 556 529 594 440 m 401 -19 q 324 -19 401 -19 q 154 79 246 -19 q 63 345 63 178 q 154 610 63 513 q 401 708 246 708 q 649 610 557 708 q 740 345 740 513 q 649 79 740 178 q 401 -19 557 -19 z "},"p":{"ha":826,"x_min":42,"x_max":764,"o":"m 268 628 l 268 621 q 478 708 358 708 q 681 615 599 708 q 764 362 764 521 q 677 92 764 203 q 458 -19 590 -19 q 319 18 375 -19 q 307 43 307 26 q 328 78 307 78 q 359 67 329 78 q 426 56 389 56 q 563 138 510 56 q 617 342 617 219 q 563 541 617 465 q 424 617 510 617 q 268 563 339 617 l 268 -215 q 280 -290 268 -268 q 326 -319 292 -311 l 356 -326 l 340 -369 l 99 -369 l 82 -349 l 99 -326 q 143 -147 143 -264 l 143 529 q 114 575 143 568 l 42 590 l 42 636 q 126 674 64 656 q 235 692 189 692 q 268 628 268 692 z "},"q":{"ha":818,"x_min":63,"x_max":731,"o":"m 683 576 l 683 -164 q 717 -326 683 -279 l 731 -349 l 714 -369 l 456 -369 l 456 -324 l 499 -304 q 544 -268 532 -289 q 557 -203 557 -247 l 557 128 q 311 -19 451 -19 q 135 69 207 -19 q 63 328 63 157 q 160 603 63 499 q 422 708 257 708 q 567 692 469 708 q 703 674 664 676 l 718 656 l 701 631 q 683 576 683 600 m 421 632 q 264 556 319 632 q 208 347 208 481 q 253 150 208 213 q 367 88 299 88 q 557 214 483 88 l 557 589 q 421 632 493 632 z "},"r":{"ha":607,"x_min":56,"x_max":607,"o":"m 283 650 l 283 501 l 292 501 q 365 651 315 594 q 472 708 414 708 q 569 670 531 708 q 607 573 607 632 q 568 478 607 514 q 471 442 529 442 q 444 457 444 442 q 464 490 444 458 q 483 550 483 522 q 470 592 483 578 q 435 607 457 607 q 389 586 414 607 q 339 522 364 565 q 283 217 283 426 q 328 43 283 104 l 344 21 l 328 0 l 85 0 l 69 43 l 99 50 q 145 80 133 58 q 157 154 157 101 l 157 544 q 129 575 157 575 l 68 575 l 56 611 q 148 671 96 647 q 229 694 200 694 q 283 650 283 694 z "},"s":{"ha":668,"x_min":75,"x_max":592,"o":"m 203 168 q 244 79 203 110 q 338 49 285 49 q 428 80 392 49 q 465 151 465 111 q 441 218 465 192 q 390 258 417 244 q 314 293 364 272 q 234 329 264 314 q 167 372 204 344 q 92 515 92 425 q 163 656 92 604 q 339 708 235 708 q 508 669 443 708 q 574 572 574 631 q 541 478 574 513 q 457 444 508 444 q 428 463 428 444 q 438 491 428 467 q 449 540 449 515 q 414 617 449 592 q 328 642 379 642 q 245 613 278 642 q 213 544 213 585 q 238 475 213 504 q 293 430 264 446 q 374 393 322 414 q 453 358 425 372 q 519 319 482 344 q 592 182 592 269 q 517 38 592 94 q 326 -19 442 -19 q 143 28 211 -19 q 75 154 75 75 q 107 232 75 201 q 179 263 139 263 q 219 246 219 263 q 211 220 219 244 q 203 168 203 196 z "},"t":{"ha":474,"x_min":15,"x_max":444,"o":"m 264 878 l 264 690 l 444 690 q 413 603 444 628 l 264 603 l 264 156 q 276 94 264 113 q 324 76 289 76 q 411 121 358 76 l 438 85 q 351 9 401 38 q 251 -19 301 -19 q 169 16 200 -19 q 138 114 138 51 l 138 603 l 15 603 q 21 651 15 640 q 49 668 26 663 q 153 731 122 688 q 199 844 185 775 q 213 872 203 867 q 264 878 224 878 z "},"u":{"ha":878,"x_min":42,"x_max":850,"o":"m 715 122 q 756 79 715 79 q 824 104 788 79 l 850 68 q 776 5 818 29 q 697 -19 733 -19 q 590 114 590 -19 q 495 17 558 53 q 344 -19 432 -19 q 199 41 256 -19 q 143 211 143 101 l 143 558 q 115 589 143 589 l 54 589 l 42 625 q 130 685 78 661 q 214 708 182 708 q 269 664 269 708 l 269 243 q 403 74 269 74 q 548 154 496 74 q 600 357 600 235 q 588 537 600 479 q 546 647 576 594 l 529 669 l 546 690 l 715 708 l 715 122 z "},"v":{"ha":768,"x_min":0,"x_max":678,"o":"m 388 71 q 519 169 474 71 q 564 410 564 268 q 503 649 564 551 l 489 671 l 506 689 l 671 708 q 678 561 678 622 q 589 134 678 288 q 372 -19 500 -19 q 217 42 267 -19 q 144 264 168 104 l 101 558 q 93 583 99 576 q 74 589 88 589 l 13 589 l 0 625 q 86 685 36 661 q 174 708 136 708 q 219 664 213 708 l 282 231 q 318 108 294 144 q 388 71 342 71 z "},"w":{"ha":1129,"x_min":0,"x_max":1046,"o":"m 388 71 q 497 173 454 71 q 539 414 539 275 q 478 650 539 553 l 464 672 l 481 690 l 643 708 q 650 560 650 622 q 643 425 650 497 l 672 231 q 710 108 685 144 q 783 71 735 71 q 892 173 850 71 q 935 414 935 275 q 874 650 935 553 l 860 672 l 876 690 l 1039 708 q 1046 561 1046 622 q 967 134 1046 288 q 774 -19 888 -19 q 648 20 693 -19 q 578 156 603 60 q 372 -19 500 -19 q 217 42 267 -19 q 144 264 168 104 l 101 558 q 93 583 99 576 q 74 589 88 589 l 13 589 l 0 625 q 86 685 36 661 q 174 708 136 708 q 219 664 213 708 l 282 231 q 318 108 294 144 q 388 71 342 71 z "},"x":{"ha":768,"x_min":28,"x_max":740,"o":"m 599 107 q 652 68 622 68 q 710 86 682 68 l 740 44 q 611 -19 681 -19 q 463 78 518 -19 l 350 269 q 228 88 228 128 q 254 43 228 65 l 281 21 l 264 0 l 49 0 l 33 29 q 321 321 240 236 l 169 582 q 116 621 146 621 q 58 603 86 621 l 28 644 q 157 708 88 708 q 306 611 250 708 l 414 422 q 536 603 536 561 q 510 647 536 625 l 483 669 l 500 690 l 715 690 l 731 661 l 658 589 q 444 371 515 446 l 599 107 z "},"y":{"ha":847,"x_min":42,"x_max":713,"o":"m 404 -386 q 228 -327 290 -386 q 167 -193 167 -268 q 214 -69 167 -118 q 343 -19 261 -19 q 369 -35 369 -19 q 353 -57 369 -40 q 319 -107 336 -74 q 301 -190 301 -140 q 334 -277 301 -240 q 422 -314 367 -314 q 549 -243 508 -314 q 589 -53 589 -172 l 589 153 q 493 56 557 92 q 342 21 429 21 q 199 81 254 21 q 143 251 143 142 l 143 560 q 115 590 143 590 l 54 590 l 42 626 q 130 686 78 663 q 214 710 182 710 q 269 665 269 710 l 269 283 q 400 114 269 114 q 545 184 493 114 q 597 373 597 254 q 588 547 597 492 q 543 649 578 603 l 526 671 l 543 692 l 713 710 l 713 -31 q 630 -294 713 -201 q 404 -386 547 -386 z "},"z":{"ha":665,"x_min":46,"x_max":619,"o":"m 435 81 q 509 92 488 81 q 539 139 531 104 l 556 213 l 599 197 l 599 -17 l 582 -33 q 417 0 531 0 l 61 0 l 46 43 l 436 610 l 228 610 q 153 598 175 610 q 124 551 132 586 l 107 478 l 64 493 l 64 707 l 81 724 q 246 690 132 690 l 592 690 q 619 631 619 667 l 582 608 l 217 81 l 435 81 z "},"{":{"ha":439,"x_min":0,"x_max":401,"o":"m 260 222 q 295 10 260 96 q 401 -93 331 -76 l 392 -156 q 175 -35 244 -137 q 106 222 106 67 q 83 376 106 331 q 0 433 60 422 l 0 486 q 83 543 60 497 q 106 697 106 589 q 175 955 106 853 q 392 1075 244 1057 l 401 1013 q 295 910 331 996 q 260 697 260 824 q 107 460 260 493 q 260 222 260 429 z "},"|":{"ha":488,"x_min":175,"x_max":313,"o":"m 313 -114 l 175 -114 l 175 1033 l 313 1033 l 313 -114 z "},"}":{"ha":439,"x_min":38,"x_max":439,"o":"m 179 222 q 332 460 179 429 q 179 697 179 493 q 144 910 179 824 q 38 1013 108 996 l 47 1075 q 264 955 194 1057 q 333 697 333 853 q 356 543 333 589 q 439 486 379 497 l 439 433 q 356 376 379 422 q 333 222 333 331 q 264 -35 333 67 q 47 -156 194 -137 l 38 -93 q 144 10 108 -76 q 179 222 179 96 z "},"~":{"ha":863,"x_min":138,"x_max":725,"o":"m 725 447 q 594 493 660 493 q 430 448 528 493 q 262 403 332 403 q 138 447 192 403 l 138 553 q 268 508 201 508 q 433 553 335 508 q 601 597 531 597 q 725 553 672 597 l 725 447 z "}," ":{"ha":382,"x_min":0,"x_max":0,"o":""},"¡":{"ha":342,"x_min":83,"x_max":258,"o":"m 225 678 q 240 662 225 678 q 256 619 256 646 q 226 560 256 593 q 170 528 196 528 q 114 560 144 528 q 83 619 83 592 q 114 678 83 646 q 169 710 144 710 q 225 678 194 710 m 258 -340 q 172 -375 228 -375 q 83 -340 117 -375 q 136 353 83 -175 q 171 415 143 415 q 206 353 199 415 q 258 -340 258 -175 z "},"¢":{"ha":675,"x_min":60,"x_max":640,"o":"m 204 503 q 204 440 204 503 q 258 303 204 376 q 407 229 313 229 q 585 299 501 229 q 599 303 589 303 q 620 290 608 303 q 632 267 632 278 q 628 251 632 256 q 418 139 543 154 l 418 -82 q 331 -115 394 -115 l 331 139 q 134 255 208 157 q 60 498 60 353 q 133 740 60 643 q 331 858 206 836 l 331 1081 q 418 1114 357 1114 l 418 863 q 578 806 517 857 q 640 687 640 756 q 602 580 640 618 q 504 542 564 542 q 478 557 478 542 q 486 572 478 560 q 511 669 511 613 q 476 759 511 726 q 381 792 440 792 q 253 711 301 792 q 204 503 204 631 z "},"£":{"ha":828,"x_min":42,"x_max":772,"o":"m 617 816 q 617 845 617 816 q 574 906 617 874 q 483 939 531 939 q 406 929 436 939 q 347 894 376 919 q 285 689 285 844 q 311 507 285 651 l 613 507 q 581 419 613 444 l 319 419 q 221 126 319 256 l 772 126 q 725 0 772 38 l 78 0 l 43 60 q 161 189 118 111 q 204 343 204 267 q 197 419 204 375 l 42 419 q 74 507 42 483 l 176 507 q 138 710 138 660 q 220 933 138 849 q 472 1017 303 1017 q 670 967 588 1017 q 753 826 753 917 q 710 721 753 763 q 604 679 667 679 l 592 679 q 575 696 575 679 q 586 714 575 700 q 617 816 617 758 z "},"¥":{"ha":869,"x_min":19,"x_max":847,"o":"m 804 636 l 574 636 l 518 549 l 771 549 q 804 636 804 575 m 92 324 q 124 411 92 388 l 804 411 q 771 324 804 350 l 92 324 m 92 549 q 124 636 92 613 l 331 636 l 368 549 l 92 549 m 622 811 q 639 869 639 842 q 622 915 639 896 q 581 942 604 935 l 549 950 l 565 997 l 829 997 l 847 975 l 826 950 q 728 803 778 892 l 513 421 l 513 185 q 532 96 513 122 q 604 56 551 69 l 636 47 l 619 0 l 315 0 l 297 22 l 315 47 q 365 147 350 96 q 381 279 381 197 l 381 410 l 158 800 q 19 975 90 921 l 38 997 l 350 997 l 367 950 l 335 942 q 287 919 301 933 q 272 887 272 906 q 315 793 272 868 l 465 531 l 622 811 z "},"¦":{"ha":488,"x_min":175,"x_max":313,"o":"m 313 629 l 175 629 l 175 1033 l 313 1033 l 313 629 m 313 -114 l 175 -114 l 175 292 l 313 292 l 313 -114 z "},"§":{"ha":610,"x_min":47,"x_max":563,"o":"m 433 847 q 433 873 433 847 q 403 926 433 899 q 322 953 374 953 q 231 917 269 953 q 192 824 192 881 q 220 711 192 767 q 321 569 249 656 q 443 308 443 425 q 433 238 443 271 l 219 494 q 100 763 100 638 q 162 940 100 865 q 356 1015 224 1015 q 504 972 446 1015 q 563 865 563 929 q 524 763 563 801 q 426 725 485 725 q 400 740 400 725 q 408 756 400 743 q 433 847 433 796 m 176 -187 q 176 -213 176 -187 q 206 -266 176 -239 q 288 -293 236 -293 q 379 -257 340 -293 q 418 -164 418 -221 q 390 -51 418 -107 q 289 90 361 4 q 167 351 167 235 q 176 422 167 389 l 390 165 q 510 -103 510 22 q 448 -281 510 -206 q 254 -356 386 -356 q 106 -312 164 -356 q 47 -206 47 -269 q 86 -103 47 -142 q 183 -65 125 -65 q 210 -81 210 -65 q 201 -97 210 -83 q 176 -187 176 -136 z "},"¨":{"ha":585,"x_min":75,"x_max":510,"o":"m 106 856 q 90 872 106 856 q 75 914 75 888 q 105 973 75 940 q 160 1006 135 1006 q 217 974 186 1006 q 247 915 247 942 q 217 856 247 888 q 161 824 186 824 q 106 856 136 824 m 368 856 q 353 872 368 856 q 338 914 338 888 q 367 973 338 940 q 423 1006 397 1006 q 479 974 449 1006 q 510 915 510 942 q 479 856 510 888 q 424 824 449 824 q 368 856 399 824 z "},"©":{"ha":1081,"x_min":139,"x_max":942,"o":"m 651 869 q 552 925 611 925 q 458 889 493 925 q 396 696 396 826 q 438 538 396 601 q 551 475 481 475 q 693 550 643 475 l 729 518 q 544 414 661 414 q 363 493 426 414 q 300 695 300 572 q 363 897 300 818 q 547 976 426 976 q 669 943 615 976 l 682 968 l 717 968 l 717 817 q 669 797 706 797 l 651 869 m 282 950 q 228 897 282 950 q 175 692 175 843 q 282 433 175 540 q 540 326 389 326 q 799 433 692 326 q 906 692 906 540 q 799 950 906 843 q 540 1057 692 1057 q 282 950 389 1057 m 257 408 q 198 467 257 408 q 139 692 139 526 q 257 975 139 857 q 540 1093 375 1093 q 824 975 706 1093 q 942 692 942 857 q 824 408 942 526 q 540 290 706 290 q 257 408 375 290 z "},"ª":{"ha":553,"x_min":63,"x_max":539,"o":"m 339 854 q 272 957 339 957 q 197 851 197 957 q 145 831 172 831 q 103 845 118 831 q 88 883 88 860 q 142 976 88 938 q 279 1015 197 1015 q 402 972 361 1015 q 443 836 443 929 l 443 607 q 462 583 443 583 q 513 604 481 583 l 539 568 q 421 501 476 501 q 340 575 350 501 q 197 501 292 501 q 101 537 139 501 q 63 635 63 572 q 117 740 63 699 q 264 781 171 781 q 339 775 310 781 l 339 854 m 238 578 q 310 617 282 578 q 339 719 338 657 q 285 725 324 725 q 175 642 175 725 q 238 578 175 578 z "},"«":{"ha":703,"x_min":69,"x_max":633,"o":"m 224 100 q 100 307 131 251 q 69 387 69 363 q 101 469 69 411 q 224 675 132 526 q 343 611 297 669 q 153 388 313 557 q 343 164 311 221 q 224 100 299 106 m 514 100 q 390 307 421 251 q 360 387 360 363 q 391 469 360 411 q 514 675 422 526 q 633 611 588 669 q 443 388 603 557 q 633 164 601 221 q 514 100 589 106 z "},"¬":{"ha":863,"x_min":138,"x_max":725,"o":"m 138 443 l 138 549 l 725 549 l 725 233 l 631 233 l 631 443 l 138 443 z "},"®":{"ha":1081,"x_min":139,"x_max":942,"o":"m 625 438 q 638 469 638 460 q 628 497 638 478 l 563 622 q 514 650 549 650 l 474 650 l 474 485 l 519 469 q 499 424 519 440 l 338 424 l 338 457 l 371 475 q 383 497 383 481 l 383 906 l 338 922 q 358 967 338 953 l 511 967 q 671 926 621 967 q 721 829 721 886 q 621 671 721 713 q 649 638 644 647 l 733 481 l 776 465 q 758 424 776 438 l 638 424 l 625 438 m 474 889 l 474 701 l 515 701 q 599 733 572 701 q 626 814 626 764 q 511 911 626 911 q 474 889 474 911 m 282 950 q 228 897 282 950 q 175 692 175 843 q 282 433 175 540 q 540 326 389 326 q 799 433 692 326 q 906 692 906 540 q 799 950 906 843 q 540 1057 692 1057 q 282 950 389 1057 m 257 408 q 198 467 257 408 q 139 692 139 526 q 257 975 139 857 q 540 1093 375 1093 q 824 975 706 1093 q 942 692 942 857 q 824 408 942 526 q 540 290 706 290 q 257 408 375 290 z "},"¯":{"ha":567,"x_min":78,"x_max":488,"o":"m 78 857 q 114 968 78 936 l 488 968 q 451 857 488 888 l 78 857 z "},"°":{"ha":604,"x_min":56,"x_max":549,"o":"m 297 567 q 325 567 297 567 q 392 619 354 567 q 429 762 429 672 q 397 901 429 851 q 306 950 364 950 q 211 897 249 950 q 174 755 174 844 q 206 616 174 665 q 297 567 239 567 m 302 501 q 245 501 302 501 q 122 572 189 501 q 56 759 56 642 q 122 946 56 876 q 301 1015 188 1015 q 482 946 415 1015 q 549 759 549 876 q 482 572 549 642 q 302 501 415 501 z "},"±":{"ha":863,"x_min":138,"x_max":725,"o":"m 138 443 l 138 549 l 379 549 l 379 790 l 483 790 l 483 549 l 725 549 l 725 443 l 483 443 l 483 203 l 379 203 l 379 443 l 138 443 m 138 -1 l 138 104 l 725 104 l 725 -1 l 138 -1 z "},"²":{"ha":539,"x_min":38,"x_max":493,"o":"m 353 856 q 326 926 353 901 q 261 951 299 951 q 196 926 224 951 q 168 858 168 901 q 180 816 168 842 q 192 783 192 790 q 154 768 192 768 q 88 795 117 768 q 58 864 58 822 q 118 976 58 936 q 270 1017 178 1017 q 419 974 363 1017 q 476 854 476 932 q 402 688 476 776 q 197 494 328 600 l 493 494 q 457 400 493 431 l 64 400 l 38 453 q 290 692 228 608 q 353 856 353 776 z "},"³":{"ha":539,"x_min":54,"x_max":481,"o":"m 481 561 q 422 435 481 479 q 269 390 363 390 q 115 428 175 390 q 54 532 54 465 q 84 601 54 574 q 145 628 114 628 q 183 625 176 628 q 189 608 189 622 q 176 583 186 608 q 165 530 165 557 q 192 481 165 503 q 260 460 219 460 q 331 488 300 460 q 361 563 361 515 q 335 645 361 610 q 238 681 308 681 q 196 676 211 681 q 171 672 181 672 q 144 696 144 672 q 153 719 144 713 q 201 732 163 725 q 344 863 344 760 q 318 929 344 906 q 258 953 292 953 q 203 933 225 953 q 181 881 181 914 q 192 829 181 849 q 204 807 204 810 q 167 789 204 789 q 100 815 129 789 q 71 883 71 842 q 125 982 71 947 q 260 1017 179 1017 q 402 977 340 1017 q 464 865 464 938 q 358 721 464 771 q 449 658 418 700 q 481 561 481 615 z "},"´":{"ha":400,"x_min":88,"x_max":363,"o":"m 304 1056 q 363 967 363 1028 q 285 868 363 906 l 128 790 l 88 839 l 304 1056 z "},"µ":{"ha":853,"x_min":31,"x_max":710,"o":"m 585 114 q 499 18 557 56 q 373 -19 440 -19 q 257 28 306 -19 l 257 -290 l 114 -272 l 97 -254 l 114 -229 q 133 -158 133 -201 l 133 529 q 103 575 133 568 l 31 590 l 31 636 q 119 674 56 656 q 225 692 182 692 q 257 628 257 692 l 257 243 q 397 74 257 74 q 532 139 479 74 q 585 306 585 204 l 585 568 q 565 631 582 604 l 549 656 l 565 674 l 710 692 l 710 0 l 693 -19 q 585 114 585 -19 z "},"¶":{"ha":856,"x_min":93,"x_max":715,"o":"m 425 -281 q 276 -237 335 -281 q 218 -131 218 -194 q 257 -28 218 -67 q 354 10 296 10 q 381 -6 381 10 q 372 -22 381 -8 q 347 -112 347 -61 q 377 -191 347 -164 q 459 -218 407 -218 q 550 -182 511 -218 q 589 -82 589 -146 q 460 165 589 17 l 238 422 q 93 751 93 590 q 175 944 93 871 q 386 1017 257 1017 q 562 1000 454 1017 q 700 981 669 983 l 715 963 l 699 938 q 681 883 681 907 l 681 -28 q 619 -206 681 -131 q 425 -281 557 -281 m 553 690 q 501 872 553 806 q 346 939 449 939 q 244 899 288 939 q 200 788 200 858 q 339 497 200 658 l 553 250 l 553 690 z "},"·":{"ha":265,"x_min":46,"x_max":218,"o":"m 76 388 q 61 403 76 388 q 46 446 46 419 q 76 505 46 472 q 131 538 106 538 q 188 506 157 538 q 218 447 218 474 q 188 388 218 419 q 132 356 157 356 q 76 388 107 356 z "},"¸":{"ha":486,"x_min":76,"x_max":417,"o":"m 169 -297 q 169 -309 169 -297 q 186 -336 169 -321 q 235 -351 203 -351 q 290 -320 267 -351 q 314 -247 314 -289 q 290 -174 314 -204 q 224 -143 265 -143 q 144 -167 183 -143 l 117 -142 l 281 71 l 314 40 l 207 -97 q 260 -92 231 -92 q 372 -132 326 -92 q 417 -244 417 -172 q 363 -362 417 -315 q 238 -410 308 -410 q 122 -381 167 -410 q 76 -310 76 -353 q 102 -244 76 -267 q 158 -222 128 -222 q 189 -236 189 -222 q 179 -256 189 -239 q 169 -297 169 -272 z "},"¹":{"ha":443,"x_min":19,"x_max":339,"o":"m 289 585 q 324 451 289 493 l 339 433 l 321 410 l 106 410 l 90 453 l 138 465 q 171 483 163 472 q 179 528 179 494 l 179 892 l 97 839 q 19 910 47 850 l 263 1021 q 314 978 293 1014 l 289 963 l 289 585 z "},"º":{"ha":604,"x_min":56,"x_max":549,"o":"m 295 953 q 266 953 295 953 q 206 901 238 953 q 174 760 174 849 q 212 619 174 672 q 307 567 250 567 q 397 616 364 567 q 429 753 429 665 q 391 897 429 840 q 295 953 353 953 m 302 501 q 245 501 302 501 q 122 572 189 501 q 56 759 56 642 q 122 946 56 876 q 301 1015 188 1015 q 482 946 415 1015 q 549 759 549 876 q 482 572 549 642 q 302 501 415 501 z "},"»":{"ha":703,"x_min":69,"x_max":633,"o":"m 479 675 q 602 469 571 526 q 633 387 633 411 q 603 307 633 363 q 479 100 572 251 q 360 164 404 106 q 550 388 392 221 q 360 611 390 557 q 479 675 406 669 m 189 675 q 312 469 281 526 q 343 387 343 411 q 313 307 343 363 q 189 100 282 251 q 69 164 114 106 q 260 388 101 221 q 69 611 100 557 q 189 675 115 669 z "},"¼":{"ha":1414,"x_min":110,"x_max":1271,"o":"m 507 0 l 408 0 l 824 997 l 924 997 l 507 0 m 1083 118 l 1083 132 l 789 132 l 986 606 l 1057 606 l 1081 585 l 908 203 l 1083 203 l 1083 306 q 1064 379 1083 349 l 1081 399 l 1194 411 l 1194 203 l 1271 203 q 1243 132 1271 154 l 1196 132 q 1228 42 1203 71 l 1243 24 l 1226 0 l 1011 0 l 994 43 l 1042 56 q 1075 74 1067 63 q 1083 118 1083 85 m 379 585 q 414 451 379 493 l 429 433 l 411 410 l 196 410 l 181 453 l 228 465 q 261 483 253 472 q 269 528 269 494 l 269 892 l 188 839 q 110 910 138 850 l 353 1021 q 404 978 383 1014 l 379 963 l 379 585 z "},"½":{"ha":1414,"x_min":110,"x_max":1261,"o":"m 479 0 l 381 0 l 796 997 l 896 997 l 479 0 m 1121 456 q 1094 526 1121 501 q 1029 551 1067 551 q 964 526 992 551 q 936 458 936 501 q 948 416 936 442 q 960 383 960 390 q 922 368 960 368 q 856 395 885 368 q 826 464 826 422 q 886 576 826 536 q 1038 617 946 617 q 1188 574 1131 617 q 1244 454 1244 532 q 1170 288 1244 376 q 965 94 1096 200 l 1261 94 q 1225 0 1261 31 l 832 0 l 806 53 q 1058 292 996 208 q 1121 456 1121 376 m 379 585 q 414 451 379 493 l 429 433 l 411 410 l 196 410 l 181 453 l 228 465 q 261 483 253 472 q 269 528 269 494 l 269 892 l 188 839 q 110 910 138 850 l 353 1021 q 404 978 383 1014 l 379 963 l 379 585 z "},"¾":{"ha":1414,"x_min":99,"x_max":1271,"o":"m 549 0 l 450 0 l 865 997 l 965 997 l 549 0 m 1083 118 l 1083 132 l 789 132 l 986 606 l 1057 606 l 1081 585 l 908 203 l 1083 203 l 1083 306 q 1064 379 1083 349 l 1081 399 l 1194 411 l 1194 203 l 1271 203 q 1243 132 1271 154 l 1196 132 q 1228 42 1203 71 l 1243 24 l 1226 0 l 1011 0 l 994 43 l 1042 56 q 1075 74 1067 63 q 1083 118 1083 85 m 525 561 q 466 435 525 479 q 313 390 407 390 q 159 428 219 390 q 99 532 99 465 q 128 601 99 574 q 190 628 158 628 q 227 625 221 628 q 233 608 233 622 q 220 583 231 608 q 210 530 210 557 q 237 481 210 503 q 304 460 264 460 q 375 488 344 460 q 406 563 406 515 q 379 645 406 610 q 282 681 353 681 q 240 676 256 681 q 215 672 225 672 q 189 696 189 672 q 198 719 189 713 q 246 732 207 725 q 389 863 389 760 q 363 929 389 906 q 303 953 336 953 q 247 933 269 953 q 225 881 225 914 q 237 829 225 849 q 249 807 249 810 q 211 789 249 789 q 144 815 174 789 q 115 883 115 842 q 169 982 115 947 q 304 1017 224 1017 q 447 977 385 1017 q 508 865 508 938 q 403 721 508 771 q 494 658 463 700 q 525 561 525 615 z "},"¿":{"ha":747,"x_min":89,"x_max":676,"o":"m 478 678 q 493 662 478 678 q 508 619 508 646 q 478 560 508 593 q 423 528 449 528 q 367 560 397 528 q 336 619 336 592 q 367 678 336 646 q 422 710 397 710 q 478 678 447 710 m 518 304 q 301 67 354 161 q 247 -112 247 -26 q 293 -241 247 -197 q 408 -285 339 -285 q 512 -252 476 -285 q 547 -174 547 -219 q 539 -104 547 -129 q 522 -66 531 -79 q 514 -50 514 -53 q 540 -35 514 -35 q 638 -73 600 -35 q 676 -171 676 -111 q 594 -310 676 -256 q 385 -364 513 -364 q 174 -299 258 -364 q 89 -121 89 -235 q 285 214 89 26 q 364 295 339 265 q 400 364 389 325 l 407 390 l 433 390 l 518 304 z "},"À":{"ha":981,"x_min":-22,"x_max":965,"o":"m 650 56 q 698 78 683 64 q 713 115 713 92 q 697 185 713 139 l 631 379 l 310 379 l 276 278 q 244 133 244 182 q 264 47 244 85 l 276 22 l 250 0 l -6 0 l -22 47 l 10 56 q 90 96 65 71 q 138 185 115 121 l 356 813 q 371 882 371 858 q 356 919 371 906 q 308 942 342 933 l 276 950 l 293 997 l 561 997 l 840 192 q 889 94 863 128 q 965 22 915 61 l 947 0 l 635 0 l 618 47 l 650 56 m 468 854 l 339 465 l 601 465 l 468 854 m 431 1175 q 353 1274 353 1213 q 411 1363 353 1335 l 628 1146 l 588 1097 l 431 1175 z "},"Á":{"ha":981,"x_min":-22,"x_max":965,"o":"m 650 56 q 698 78 683 64 q 713 115 713 92 q 697 185 713 139 l 631 379 l 310 379 l 276 278 q 244 133 244 182 q 264 47 244 85 l 276 22 l 250 0 l -6 0 l -22 47 l 10 56 q 90 96 65 71 q 138 185 115 121 l 356 813 q 371 882 371 858 q 356 919 371 906 q 308 942 342 933 l 276 950 l 293 997 l 561 997 l 840 192 q 889 94 863 128 q 965 22 915 61 l 947 0 l 635 0 l 618 47 l 650 56 m 468 854 l 339 465 l 601 465 l 468 854 m 569 1363 q 628 1274 628 1335 q 550 1175 628 1213 l 393 1097 l 353 1146 l 569 1363 z "},"Â":{"ha":981,"x_min":-22,"x_max":965,"o":"m 650 56 q 698 78 683 64 q 713 115 713 92 q 697 185 713 139 l 631 379 l 310 379 l 276 278 q 244 133 244 182 q 264 47 244 85 l 276 22 l 250 0 l -6 0 l -22 47 l 10 56 q 90 96 65 71 q 138 185 115 121 l 356 813 q 371 882 371 858 q 356 919 371 906 q 308 942 342 933 l 276 950 l 293 997 l 561 997 l 840 192 q 889 94 863 128 q 965 22 915 61 l 947 0 l 635 0 l 618 47 l 650 56 m 468 854 l 339 465 l 601 465 l 468 854 m 472 1356 l 510 1356 q 586 1276 535 1340 q 681 1136 638 1213 l 636 1097 l 490 1213 l 346 1097 l 300 1136 q 394 1276 344 1214 q 472 1356 444 1339 z "},"Ã":{"ha":981,"x_min":-22,"x_max":965,"o":"m 650 56 q 698 78 683 64 q 713 115 713 92 q 697 185 713 139 l 631 379 l 310 379 l 276 278 q 244 133 244 182 q 264 47 244 85 l 276 22 l 250 0 l -6 0 l -22 47 l 10 56 q 90 96 65 71 q 138 185 115 121 l 356 813 q 371 882 371 858 q 356 919 371 906 q 308 942 342 933 l 276 950 l 293 997 l 561 997 l 840 192 q 889 94 863 128 q 965 22 915 61 l 947 0 l 635 0 l 618 47 l 650 56 m 468 854 l 339 465 l 601 465 l 468 854 m 536 1133 q 463 1158 503 1133 q 404 1182 424 1182 q 311 1128 365 1182 l 263 1171 q 442 1306 361 1306 q 513 1281 474 1306 q 572 1257 551 1257 q 667 1311 611 1257 l 714 1268 q 536 1133 618 1133 z "},"Ä":{"ha":981,"x_min":-22,"x_max":965,"o":"m 650 56 q 698 78 683 64 q 713 115 713 92 q 697 185 713 139 l 631 379 l 310 379 l 276 278 q 244 133 244 182 q 264 47 244 85 l 276 22 l 250 0 l -6 0 l -22 47 l 10 56 q 90 96 65 71 q 138 185 115 121 l 356 813 q 371 882 371 858 q 356 919 371 906 q 308 942 342 933 l 276 950 l 293 997 l 561 997 l 840 192 q 889 94 863 128 q 965 22 915 61 l 947 0 l 635 0 l 618 47 l 650 56 m 468 854 l 339 465 l 601 465 l 468 854 m 303 1163 q 288 1178 303 1163 q 272 1221 272 1194 q 302 1280 272 1247 q 358 1313 332 1313 q 414 1281 383 1313 q 444 1222 444 1249 q 414 1163 444 1194 q 358 1131 383 1131 q 303 1163 333 1131 m 565 1163 q 550 1178 565 1163 q 535 1221 535 1194 q 565 1280 535 1247 q 620 1313 594 1313 q 676 1281 646 1313 q 707 1222 707 1249 q 676 1163 707 1194 q 621 1131 646 1131 q 565 1163 596 1131 z "},"Å":{"ha":981,"x_min":-22,"x_max":965,"o":"m 650 56 q 698 78 683 64 q 713 115 713 92 q 697 185 713 139 l 631 379 l 310 379 l 276 278 q 244 133 244 182 q 264 47 244 85 l 276 22 l 250 0 l -6 0 l -22 47 l 10 56 q 90 96 65 71 q 138 185 115 121 l 356 813 q 371 882 371 858 q 356 919 371 906 q 308 942 342 933 l 276 950 l 293 997 l 561 997 l 840 192 q 889 94 863 128 q 965 22 915 61 l 947 0 l 635 0 l 618 47 l 650 56 m 468 854 l 339 465 l 601 465 l 468 854 m 444 1278 q 437 1267 444 1278 q 429 1221 429 1256 q 444 1163 429 1186 q 488 1140 460 1140 q 533 1163 517 1140 q 549 1221 549 1186 q 533 1278 549 1256 q 488 1301 517 1301 q 444 1278 460 1301 m 372 1115 q 352 1135 372 1115 q 332 1221 332 1156 q 372 1328 332 1286 q 489 1369 413 1369 q 606 1328 565 1369 q 647 1221 647 1286 q 606 1115 647 1156 q 489 1074 565 1074 q 372 1115 413 1074 z "},"Æ":{"ha":1339,"x_min":-19,"x_max":1251,"o":"m 924 425 l 806 425 l 806 185 q 823 100 806 121 q 894 79 840 79 l 1044 79 q 1147 103 1118 79 q 1196 203 1176 128 l 1204 235 l 1251 218 l 1251 -19 l 1224 -35 l 1213 -19 q 1154 0 1197 0 l 569 0 l 554 44 l 583 53 q 651 92 635 68 q 668 175 668 115 l 668 425 l 393 425 l 278 214 q 249 124 249 160 q 267 47 249 88 l 279 22 l 253 0 l -3 0 l -19 47 l 13 56 q 121 131 90 76 l 604 997 l 1031 997 q 1189 1026 1150 997 l 1214 1044 l 1236 1026 l 1236 779 l 1189 763 l 1181 794 q 1132 894 1161 869 q 1029 918 1103 918 l 894 918 q 823 897 840 918 q 806 813 806 876 l 806 504 l 982 504 q 1092 568 1046 504 l 1103 583 l 1131 568 l 1131 331 l 1083 314 l 1075 346 q 1031 409 1063 393 q 924 425 1000 425 m 668 504 l 668 924 l 438 504 l 668 504 z "},"Ç":{"ha":857,"x_min":49,"x_max":821,"o":"m 497 1017 q 164 870 279 1017 q 49 498 49 724 q 163 126 49 272 q 488 -19 278 -19 q 817 157 697 -19 q 821 172 821 164 q 805 194 821 181 q 780 207 789 207 q 767 201 771 207 q 506 76 681 76 q 288 198 369 76 q 206 494 206 319 q 269 794 206 668 q 360 900 301 861 q 498 939 419 939 q 625 899 576 939 q 674 797 674 858 q 642 686 674 735 q 632 667 632 671 q 661 650 632 650 q 767 696 725 650 q 810 813 810 742 q 722 960 810 903 q 497 1017 635 1017 m 354 -297 q 354 -309 354 -297 q 371 -336 354 -321 q 419 -351 388 -351 q 475 -320 451 -351 q 499 -247 499 -289 q 474 -174 499 -204 q 409 -143 450 -143 q 329 -167 368 -143 l 301 -142 l 465 71 l 499 40 l 392 -97 q 444 -92 415 -92 q 556 -132 511 -92 q 601 -244 601 -172 q 547 -362 601 -315 q 422 -410 493 -410 q 306 -381 351 -410 q 261 -310 261 -353 q 287 -244 261 -267 q 343 -222 313 -222 q 374 -236 374 -222 q 364 -256 374 -239 q 354 -297 354 -272 z "},"È":{"ha":847,"x_min":63,"x_max":760,"o":"m 432 467 l 314 467 l 314 185 q 331 100 314 121 q 403 79 349 79 l 553 79 q 656 103 626 79 q 704 203 685 128 l 713 235 l 760 218 l 760 -19 l 732 -35 l 721 -19 q 663 0 706 0 l 78 0 l 63 44 l 92 53 q 160 92 143 68 q 176 175 176 115 l 176 718 q 163 853 176 801 q 114 950 149 904 l 96 975 l 114 997 l 539 997 q 697 1026 658 997 l 722 1044 l 744 1026 l 744 779 l 697 763 l 689 794 q 640 894 669 869 q 538 918 611 918 l 403 918 q 331 897 349 918 q 314 813 314 876 l 314 546 l 490 546 q 600 610 554 546 l 611 625 l 639 610 l 639 372 l 592 356 l 583 388 q 540 451 571 435 q 432 467 508 467 m 369 1175 q 292 1274 292 1213 q 350 1363 292 1335 l 567 1146 l 526 1097 l 369 1175 z "},"É":{"ha":847,"x_min":63,"x_max":760,"o":"m 432 467 l 314 467 l 314 185 q 331 100 314 121 q 403 79 349 79 l 553 79 q 656 103 626 79 q 704 203 685 128 l 713 235 l 760 218 l 760 -19 l 732 -35 l 721 -19 q 663 0 706 0 l 78 0 l 63 44 l 92 53 q 160 92 143 68 q 176 175 176 115 l 176 718 q 163 853 176 801 q 114 950 149 904 l 96 975 l 114 997 l 539 997 q 697 1026 658 997 l 722 1044 l 744 1026 l 744 779 l 697 763 l 689 794 q 640 894 669 869 q 538 918 611 918 l 403 918 q 331 897 349 918 q 314 813 314 876 l 314 546 l 490 546 q 600 610 554 546 l 611 625 l 639 610 l 639 372 l 592 356 l 583 388 q 540 451 571 435 q 432 467 508 467 m 550 1363 q 608 1274 608 1335 q 531 1175 608 1213 l 374 1097 l 333 1146 l 550 1363 z "},"Ê":{"ha":847,"x_min":63,"x_max":760,"o":"m 432 467 l 314 467 l 314 185 q 331 100 314 121 q 403 79 349 79 l 553 79 q 656 103 626 79 q 704 203 685 128 l 713 235 l 760 218 l 760 -19 l 732 -35 l 721 -19 q 663 0 706 0 l 78 0 l 63 44 l 92 53 q 160 92 143 68 q 176 175 176 115 l 176 718 q 163 853 176 801 q 114 950 149 904 l 96 975 l 114 997 l 539 997 q 697 1026 658 997 l 722 1044 l 744 1026 l 744 779 l 697 763 l 689 794 q 640 894 669 869 q 538 918 611 918 l 403 918 q 331 897 349 918 q 314 813 314 876 l 314 546 l 490 546 q 600 610 554 546 l 611 625 l 639 610 l 639 372 l 592 356 l 583 388 q 540 451 571 435 q 432 467 508 467 m 425 1356 l 463 1356 q 539 1276 488 1340 q 633 1136 590 1213 l 589 1097 l 443 1213 l 299 1097 l 253 1136 q 347 1276 297 1214 q 425 1356 397 1339 z "},"Ë":{"ha":847,"x_min":63,"x_max":760,"o":"m 432 467 l 314 467 l 314 185 q 331 100 314 121 q 403 79 349 79 l 553 79 q 656 103 626 79 q 704 203 685 128 l 713 235 l 760 218 l 760 -19 l 732 -35 l 721 -19 q 663 0 706 0 l 78 0 l 63 44 l 92 53 q 160 92 143 68 q 176 175 176 115 l 176 718 q 163 853 176 801 q 114 950 149 904 l 96 975 l 114 997 l 539 997 q 697 1026 658 997 l 722 1044 l 744 1026 l 744 779 l 697 763 l 689 794 q 640 894 669 869 q 538 918 611 918 l 403 918 q 331 897 349 918 q 314 813 314 876 l 314 546 l 490 546 q 600 610 554 546 l 611 625 l 639 610 l 639 372 l 592 356 l 583 388 q 540 451 571 435 q 432 467 508 467 m 256 1163 q 240 1178 256 1163 q 225 1221 225 1194 q 255 1280 225 1247 q 310 1313 285 1313 q 367 1281 336 1313 q 397 1222 397 1249 q 367 1163 397 1194 q 311 1131 336 1131 q 256 1163 286 1131 m 518 1163 q 503 1178 518 1163 q 488 1221 488 1194 q 517 1280 488 1247 q 573 1313 547 1313 q 629 1281 599 1313 q 660 1222 660 1249 q 629 1163 660 1194 q 574 1131 599 1131 q 518 1163 549 1131 z "},"Ì":{"ha":490,"x_min":56,"x_max":428,"o":"m 176 185 l 176 813 q 158 901 176 876 q 88 942 140 926 l 56 950 l 72 997 l 376 997 l 394 975 l 376 950 q 328 853 342 904 q 314 718 314 801 l 314 175 q 331 92 314 115 q 399 53 347 68 l 428 44 l 413 0 l 72 0 l 56 47 l 88 56 q 158 96 140 71 q 176 185 176 121 m 185 1175 q 107 1274 107 1213 q 165 1363 107 1335 l 382 1146 l 342 1097 l 185 1175 z "},"Í":{"ha":490,"x_min":56,"x_max":428,"o":"m 176 185 l 176 813 q 158 901 176 876 q 88 942 140 926 l 56 950 l 72 997 l 376 997 l 394 975 l 376 950 q 328 853 342 904 q 314 718 314 801 l 314 175 q 331 92 314 115 q 399 53 347 68 l 428 44 l 413 0 l 72 0 l 56 47 l 88 56 q 158 96 140 71 q 176 185 176 121 m 338 1363 q 396 1274 396 1335 q 318 1175 396 1213 l 161 1097 l 121 1146 l 338 1363 z "},"Î":{"ha":490,"x_min":54,"x_max":435,"o":"m 176 185 l 176 813 q 158 901 176 876 q 88 942 140 926 l 56 950 l 72 997 l 376 997 l 394 975 l 376 950 q 328 853 342 904 q 314 718 314 801 l 314 175 q 331 92 314 115 q 399 53 347 68 l 428 44 l 413 0 l 72 0 l 56 47 l 88 56 q 158 96 140 71 q 176 185 176 121 m 226 1356 l 264 1356 q 340 1276 289 1340 q 435 1136 392 1213 l 390 1097 l 244 1213 l 100 1097 l 54 1136 q 149 1276 99 1214 q 226 1356 199 1339 z "},"Ï":{"ha":490,"x_min":28,"x_max":463,"o":"m 176 185 l 176 813 q 158 901 176 876 q 88 942 140 926 l 56 950 l 72 997 l 376 997 l 394 975 l 376 950 q 328 853 342 904 q 314 718 314 801 l 314 175 q 331 92 314 115 q 399 53 347 68 l 428 44 l 413 0 l 72 0 l 56 47 l 88 56 q 158 96 140 71 q 176 185 176 121 m 58 1163 q 43 1178 58 1163 q 28 1221 28 1194 q 58 1280 28 1247 q 113 1313 88 1313 q 169 1281 139 1313 q 200 1222 200 1249 q 169 1163 200 1194 q 114 1131 139 1131 q 58 1163 89 1131 m 321 1163 q 306 1178 321 1163 q 290 1221 290 1194 q 320 1280 290 1247 q 376 1313 350 1313 q 432 1281 401 1313 q 463 1222 463 1249 q 432 1163 463 1194 q 376 1131 401 1131 q 321 1163 351 1131 z "},"Ð":{"ha":1018,"x_min":14,"x_max":969,"o":"m 14 461 q 46 549 14 525 l 585 549 q 553 461 585 486 l 14 461 m 508 0 l 72 0 l 56 47 l 88 56 q 154 92 132 68 q 176 169 176 117 l 176 871 q 146 904 176 904 l 65 904 l 49 956 q 221 998 115 979 q 436 1017 326 1017 q 640 989 546 1017 q 796 914 735 961 q 897 800 857 867 q 969 497 969 675 q 851 140 969 279 q 508 0 732 0 m 314 875 l 314 243 q 355 108 314 144 q 464 71 396 71 q 818 500 818 71 q 731 803 818 676 q 615 902 688 865 q 450 939 543 939 q 314 875 314 939 z "},"Ñ":{"ha":1082,"x_min":47,"x_max":996,"o":"m 265 279 q 279 144 265 196 q 328 47 293 93 l 346 22 l 328 0 l 64 0 l 47 47 l 79 56 q 150 96 132 71 q 168 185 168 121 l 168 813 q 150 901 168 876 q 79 942 132 926 l 47 950 l 64 997 l 288 997 l 818 210 l 818 813 q 800 901 818 876 q 729 942 782 926 l 697 950 l 714 997 l 978 997 l 996 975 l 978 950 q 929 853 943 904 q 915 718 915 801 l 915 122 q 935 47 915 75 l 953 22 l 935 0 l 794 0 l 265 785 l 265 279 m 600 1133 q 527 1158 567 1133 q 468 1182 488 1182 q 375 1128 429 1182 l 326 1171 q 506 1306 425 1306 q 576 1281 538 1306 q 636 1257 615 1257 q 731 1311 675 1257 l 778 1268 q 600 1133 682 1133 z "},"Ò":{"ha":1018,"x_min":49,"x_max":969,"o":"m 756 779 q 661 894 724 850 q 515 938 599 938 q 283 808 368 938 q 199 490 199 678 q 278 182 199 301 q 503 63 357 63 q 733 185 649 63 q 818 476 818 307 q 756 779 818 644 m 167 126 q 108 198 167 126 q 49 497 49 271 q 167 870 49 724 q 508 1017 285 1017 q 850 870 731 1017 q 969 497 969 724 q 850 126 969 271 q 508 -19 731 -19 q 167 126 285 -19 m 449 1175 q 371 1274 371 1213 q 429 1363 371 1335 l 646 1146 l 606 1097 l 449 1175 z "},"Ó":{"ha":1018,"x_min":49,"x_max":969,"o":"m 756 779 q 661 894 724 850 q 515 938 599 938 q 283 808 368 938 q 199 490 199 678 q 278 182 199 301 q 503 63 357 63 q 733 185 649 63 q 818 476 818 307 q 756 779 818 644 m 167 126 q 108 198 167 126 q 49 497 49 271 q 167 870 49 724 q 508 1017 285 1017 q 850 870 731 1017 q 969 497 969 724 q 850 126 969 271 q 508 -19 731 -19 q 167 126 285 -19 m 588 1363 q 646 1274 646 1335 q 568 1175 646 1213 l 411 1097 l 371 1146 l 588 1363 z "},"Ô":{"ha":1018,"x_min":49,"x_max":969,"o":"m 756 779 q 661 894 724 850 q 515 938 599 938 q 283 808 368 938 q 199 490 199 678 q 278 182 199 301 q 503 63 357 63 q 733 185 649 63 q 818 476 818 307 q 756 779 818 644 m 167 126 q 108 198 167 126 q 49 497 49 271 q 167 870 49 724 q 508 1017 285 1017 q 850 870 731 1017 q 969 497 969 724 q 850 126 969 271 q 508 -19 731 -19 q 167 126 285 -19 m 490 1356 l 528 1356 q 604 1276 553 1340 q 699 1136 656 1213 l 654 1097 l 508 1213 l 364 1097 l 318 1136 q 413 1276 363 1214 q 490 1356 463 1339 z "},"Õ":{"ha":1018,"x_min":49,"x_max":969,"o":"m 756 779 q 661 894 724 850 q 515 938 599 938 q 283 808 368 938 q 199 490 199 678 q 278 182 199 301 q 503 63 357 63 q 733 185 649 63 q 818 476 818 307 q 756 779 818 644 m 167 126 q 108 198 167 126 q 49 497 49 271 q 167 870 49 724 q 508 1017 285 1017 q 850 870 731 1017 q 969 497 969 724 q 850 126 969 271 q 508 -19 731 -19 q 167 126 285 -19 m 557 1133 q 484 1158 524 1133 q 425 1182 444 1182 q 332 1128 386 1182 l 283 1171 q 463 1306 382 1306 q 533 1281 494 1306 q 593 1257 572 1257 q 688 1311 632 1257 l 735 1268 q 557 1133 639 1133 z "},"Ö":{"ha":1018,"x_min":49,"x_max":969,"o":"m 756 779 q 661 894 724 850 q 515 938 599 938 q 283 808 368 938 q 199 490 199 678 q 278 182 199 301 q 503 63 357 63 q 733 185 649 63 q 818 476 818 307 q 756 779 818 644 m 167 126 q 108 198 167 126 q 49 497 49 271 q 167 870 49 724 q 508 1017 285 1017 q 850 870 731 1017 q 969 497 969 724 q 850 126 969 271 q 508 -19 731 -19 q 167 126 285 -19 m 322 1163 q 307 1178 322 1163 q 292 1221 292 1194 q 322 1280 292 1247 q 377 1313 351 1313 q 433 1281 403 1313 q 464 1222 464 1249 q 433 1163 464 1194 q 378 1131 403 1131 q 322 1163 353 1131 m 585 1163 q 569 1178 585 1163 q 554 1221 554 1194 q 584 1280 554 1247 q 640 1313 614 1313 q 696 1281 665 1313 q 726 1222 726 1249 q 696 1163 726 1194 q 640 1131 665 1131 q 585 1163 615 1131 z "},"×":{"ha":863,"x_min":156,"x_max":707,"o":"m 231 219 l 156 294 l 356 496 l 156 697 l 231 772 l 431 571 l 632 772 l 707 697 l 506 496 l 707 294 l 632 219 l 431 421 l 231 219 z "},"Ø":{"ha":1018,"x_min":49,"x_max":969,"o":"m 756 779 q 661 894 724 850 q 515 938 599 938 q 283 808 368 938 q 199 490 199 678 q 278 182 199 301 q 503 63 357 63 q 733 185 649 63 q 818 476 818 307 q 756 779 818 644 m 167 126 q 108 198 167 126 q 49 497 49 271 q 167 870 49 724 q 508 1017 285 1017 q 850 870 731 1017 q 969 497 969 724 q 850 126 969 271 q 508 -19 731 -19 q 167 126 285 -19 m 350 -87 l 251 -87 l 667 1085 l 767 1085 l 350 -87 z "},"Ù":{"ha":1026,"x_min":33,"x_max":958,"o":"m 292 718 l 292 306 q 361 132 292 196 q 536 68 431 68 q 711 132 642 68 q 781 306 781 196 l 781 813 q 763 901 781 876 q 692 942 744 926 l 660 950 l 676 997 l 940 997 l 958 975 l 940 950 q 892 853 906 904 q 878 718 878 801 l 878 306 q 778 61 878 142 q 517 -19 678 -19 q 255 61 356 -19 q 154 306 154 142 l 154 813 q 136 901 154 876 q 65 942 118 926 l 33 950 l 50 997 l 354 997 l 372 975 l 354 950 q 306 853 319 904 q 292 718 292 801 m 453 1175 q 375 1274 375 1213 q 433 1363 375 1335 l 650 1146 l 610 1097 l 453 1175 z "},"Ú":{"ha":1026,"x_min":33,"x_max":958,"o":"m 292 718 l 292 306 q 361 132 292 196 q 536 68 431 68 q 711 132 642 68 q 781 306 781 196 l 781 813 q 763 901 781 876 q 692 942 744 926 l 660 950 l 676 997 l 940 997 l 958 975 l 940 950 q 892 853 906 904 q 878 718 878 801 l 878 306 q 778 61 878 142 q 517 -19 678 -19 q 255 61 356 -19 q 154 306 154 142 l 154 813 q 136 901 154 876 q 65 942 118 926 l 33 950 l 50 997 l 354 997 l 372 975 l 354 950 q 306 853 319 904 q 292 718 292 801 m 642 1363 q 700 1274 700 1335 q 622 1175 700 1213 l 465 1097 l 425 1146 l 642 1363 z "},"Û":{"ha":1026,"x_min":33,"x_max":958,"o":"m 292 718 l 292 306 q 361 132 292 196 q 536 68 431 68 q 711 132 642 68 q 781 306 781 196 l 781 813 q 763 901 781 876 q 692 942 744 926 l 660 950 l 676 997 l 940 997 l 958 975 l 940 950 q 892 853 906 904 q 878 718 878 801 l 878 306 q 778 61 878 142 q 517 -19 678 -19 q 255 61 356 -19 q 154 306 154 142 l 154 813 q 136 901 154 876 q 65 942 118 926 l 33 950 l 50 997 l 354 997 l 372 975 l 354 950 q 306 853 319 904 q 292 718 292 801 m 518 1356 l 556 1356 q 632 1276 581 1340 q 726 1136 683 1213 l 682 1097 l 536 1213 l 392 1097 l 346 1136 q 440 1276 390 1214 q 518 1356 490 1339 z "},"Ü":{"ha":1026,"x_min":33,"x_max":958,"o":"m 292 718 l 292 306 q 361 132 292 196 q 536 68 431 68 q 711 132 642 68 q 781 306 781 196 l 781 813 q 763 901 781 876 q 692 942 744 926 l 660 950 l 676 997 l 940 997 l 958 975 l 940 950 q 892 853 906 904 q 878 718 878 801 l 878 306 q 778 61 878 142 q 517 -19 678 -19 q 255 61 356 -19 q 154 306 154 142 l 154 813 q 136 901 154 876 q 65 942 118 926 l 33 950 l 50 997 l 354 997 l 372 975 l 354 950 q 306 853 319 904 q 292 718 292 801 m 344 1163 q 329 1178 344 1163 q 314 1221 314 1194 q 344 1280 314 1247 q 399 1313 374 1313 q 456 1281 425 1313 q 486 1222 486 1249 q 456 1163 486 1194 q 400 1131 425 1131 q 344 1163 375 1131 m 607 1163 q 592 1178 607 1163 q 576 1221 576 1194 q 606 1280 576 1247 q 662 1313 636 1313 q 718 1281 688 1313 q 749 1222 749 1249 q 718 1163 749 1194 q 663 1131 688 1131 q 607 1163 638 1131 z "},"Ý":{"ha":869,"x_min":7,"x_max":835,"o":"m 610 811 q 626 869 626 842 q 609 915 626 896 q 568 942 592 935 l 536 950 l 553 997 l 817 997 l 835 975 l 814 950 q 715 803 765 892 l 500 421 l 500 185 q 519 96 500 122 q 592 56 539 69 l 624 47 l 607 0 l 303 0 l 285 22 l 303 47 q 353 147 338 96 q 368 279 368 197 l 368 410 l 146 800 q 7 975 78 921 l 25 997 l 338 997 l 354 950 l 322 942 q 274 919 289 933 q 260 887 260 906 q 303 793 260 868 l 453 531 l 610 811 m 579 1363 q 638 1274 638 1335 q 560 1175 638 1213 l 403 1097 l 363 1146 l 579 1363 z "},"Þ":{"ha":828,"x_min":56,"x_max":800,"o":"m 176 185 l 176 813 q 158 901 176 876 q 88 942 140 926 l 56 950 l 72 997 l 376 997 l 394 975 l 376 950 q 318 807 329 886 q 472 835 396 835 q 707 740 614 835 q 800 504 800 644 q 715 272 800 364 q 467 181 631 181 q 380 193 415 181 q 344 234 344 206 q 367 263 344 263 q 389 258 368 263 q 435 253 410 253 q 597 319 539 253 q 656 501 656 386 q 598 688 656 615 q 427 761 540 761 q 314 692 314 761 l 314 175 q 331 92 314 115 q 399 53 347 68 l 428 44 l 413 0 l 72 0 l 56 47 l 88 56 q 158 96 140 71 q 176 185 176 121 z "},"ß":{"ha":882,"x_min":18,"x_max":857,"o":"m 453 78 q 501 64 456 78 q 602 50 547 50 q 696 78 657 50 q 735 163 735 106 q 597 331 735 261 l 493 383 q 410 455 436 419 q 385 542 385 490 q 430 655 385 594 q 521 782 475 715 q 567 908 567 849 q 453 1014 567 1014 q 319 943 363 1014 q 276 753 276 872 l 276 279 q 290 144 276 196 q 339 47 304 93 l 357 22 l 339 0 l 35 0 l 18 47 l 50 56 q 121 96 103 71 q 139 185 139 121 l 139 731 q 235 993 139 900 q 486 1086 331 1086 q 635 1040 576 1086 q 693 908 693 994 q 664 817 693 863 q 600 739 635 771 q 508 587 508 653 q 582 483 508 521 l 681 433 q 857 201 857 343 q 785 46 857 111 q 612 -19 714 -19 q 444 15 510 -19 q 432 51 432 24 q 453 78 432 78 z "},"à":{"ha":839,"x_min":63,"x_max":818,"o":"m 311 -19 q 135 69 207 -19 q 63 328 63 157 q 160 603 63 499 q 422 708 257 708 q 565 692 469 708 q 700 674 660 676 l 715 656 l 699 631 q 681 576 681 603 l 681 122 q 722 79 681 79 q 792 104 756 79 l 818 68 q 664 -19 739 -19 q 582 15 607 -19 q 557 128 557 50 q 311 -19 451 -19 m 421 632 q 264 556 319 632 q 208 347 208 481 q 253 150 208 213 q 367 88 299 88 q 557 214 483 88 l 557 589 q 421 632 493 632 m 360 868 q 282 967 282 906 q 340 1056 282 1028 l 557 839 l 517 790 l 360 868 z "},"á":{"ha":839,"x_min":63,"x_max":818,"o":"m 311 -19 q 135 69 207 -19 q 63 328 63 157 q 160 603 63 499 q 422 708 257 708 q 565 692 469 708 q 700 674 660 676 l 715 656 l 699 631 q 681 576 681 603 l 681 122 q 722 79 681 79 q 792 104 756 79 l 818 68 q 664 -19 739 -19 q 582 15 607 -19 q 557 128 557 50 q 311 -19 451 -19 m 421 632 q 264 556 319 632 q 208 347 208 481 q 253 150 208 213 q 367 88 299 88 q 557 214 483 88 l 557 589 q 421 632 493 632 m 499 1056 q 557 967 557 1028 q 479 868 557 906 l 322 790 l 282 839 l 499 1056 z "},"â":{"ha":839,"x_min":63,"x_max":818,"o":"m 311 -19 q 135 69 207 -19 q 63 328 63 157 q 160 603 63 499 q 422 708 257 708 q 565 692 469 708 q 700 674 660 676 l 715 656 l 699 631 q 681 576 681 603 l 681 122 q 722 79 681 79 q 792 104 756 79 l 818 68 q 664 -19 739 -19 q 582 15 607 -19 q 557 128 557 50 q 311 -19 451 -19 m 421 632 q 264 556 319 632 q 208 347 208 481 q 253 150 208 213 q 367 88 299 88 q 557 214 483 88 l 557 589 q 421 632 493 632 m 401 1049 l 439 1049 q 515 969 464 1033 q 610 829 567 906 l 565 790 l 419 906 l 275 790 l 229 829 q 324 969 274 907 q 401 1049 374 1032 z "},"ã":{"ha":839,"x_min":63,"x_max":818,"o":"m 311 -19 q 135 69 207 -19 q 63 328 63 157 q 160 603 63 499 q 422 708 257 708 q 565 692 469 708 q 700 674 660 676 l 715 656 l 699 631 q 681 576 681 603 l 681 122 q 722 79 681 79 q 792 104 756 79 l 818 68 q 664 -19 739 -19 q 582 15 607 -19 q 557 128 557 50 q 311 -19 451 -19 m 421 632 q 264 556 319 632 q 208 347 208 481 q 253 150 208 213 q 367 88 299 88 q 557 214 483 88 l 557 589 q 421 632 493 632 m 467 826 q 394 851 433 826 q 335 875 354 875 q 242 821 296 875 l 193 864 q 372 999 292 999 q 443 974 404 999 q 503 950 482 950 q 597 1004 542 950 l 644 961 q 467 826 549 826 z "},"ä":{"ha":839,"x_min":63,"x_max":818,"o":"m 311 -19 q 135 69 207 -19 q 63 328 63 157 q 160 603 63 499 q 422 708 257 708 q 565 692 469 708 q 700 674 660 676 l 715 656 l 699 631 q 681 576 681 603 l 681 122 q 722 79 681 79 q 792 104 756 79 l 818 68 q 664 -19 739 -19 q 582 15 607 -19 q 557 128 557 50 q 311 -19 451 -19 m 421 632 q 264 556 319 632 q 208 347 208 481 q 253 150 208 213 q 367 88 299 88 q 557 214 483 88 l 557 589 q 421 632 493 632 m 232 856 q 217 872 232 856 q 201 914 201 888 q 231 973 201 940 q 287 1006 261 1006 q 343 974 313 1006 q 374 915 374 942 q 343 856 374 888 q 288 824 313 824 q 232 856 263 824 m 494 856 q 479 872 494 856 q 464 914 464 888 q 494 973 464 940 q 549 1006 524 1006 q 606 974 575 1006 q 636 915 636 942 q 606 856 636 888 q 550 824 575 824 q 494 856 525 824 z "},"å":{"ha":839,"x_min":63,"x_max":818,"o":"m 311 -19 q 135 69 207 -19 q 63 328 63 157 q 160 603 63 499 q 422 708 257 708 q 565 692 469 708 q 700 674 660 676 l 715 656 l 699 631 q 681 576 681 603 l 681 122 q 722 79 681 79 q 792 104 756 79 l 818 68 q 664 -19 739 -19 q 582 15 607 -19 q 557 128 557 50 q 311 -19 451 -19 m 421 632 q 264 556 319 632 q 208 347 208 481 q 253 150 208 213 q 367 88 299 88 q 557 214 483 88 l 557 589 q 421 632 493 632 m 374 972 q 366 960 374 972 q 358 914 358 949 q 374 856 358 879 q 417 833 389 833 q 462 856 446 833 q 478 914 478 879 q 462 972 478 949 q 417 994 446 994 q 374 972 389 994 m 301 808 q 281 828 301 808 q 261 914 261 849 q 301 1021 261 979 q 418 1063 342 1063 q 535 1021 494 1063 q 576 914 576 979 q 535 808 576 849 q 418 767 494 767 q 301 808 342 767 z "},"æ":{"ha":1201,"x_min":63,"x_max":1129,"o":"m 353 708 q 607 582 518 708 q 889 708 707 708 q 1064 649 1003 708 q 1125 500 1125 589 q 1053 340 1125 411 q 860 269 982 269 q 761 286 815 269 q 707 335 707 303 q 713 356 707 346 q 724 365 719 365 q 756 356 729 365 q 817 347 783 347 q 947 394 900 347 q 993 501 993 442 q 958 599 993 560 q 861 639 924 639 q 722 560 772 639 q 672 347 672 482 q 725 142 672 213 q 889 72 778 72 q 1081 151 1000 72 q 1095 157 1086 157 q 1117 144 1104 157 q 1129 120 1129 131 q 1124 104 1129 110 q 849 -19 1017 -19 q 681 24 753 -19 q 569 147 608 68 q 464 24 533 68 q 290 -19 394 -19 q 124 40 185 -19 q 63 190 63 100 q 134 352 63 279 q 328 425 206 425 q 435 408 376 425 q 494 360 494 392 q 488 339 494 349 q 476 329 482 329 q 440 338 471 329 q 371 347 410 347 q 241 299 288 347 q 194 190 194 250 q 229 93 194 131 q 326 56 264 56 q 476 133 422 56 q 529 343 529 210 q 476 547 529 476 q 324 617 424 617 q 210 601 257 617 q 143 570 164 586 q 115 554 122 554 q 94 567 107 554 q 82 595 82 581 q 115 636 82 610 q 213 685 147 663 q 353 708 279 708 z "},"ç":{"ha":707,"x_min":63,"x_max":651,"o":"m 604 143 q 618 147 608 147 q 640 135 628 147 q 651 111 651 122 q 647 96 651 100 q 399 -19 547 -19 q 157 83 251 -19 q 63 348 63 186 q 154 609 63 510 q 399 708 246 708 q 574 656 506 708 q 643 522 643 604 q 605 424 643 463 q 507 386 567 386 q 481 401 481 386 q 489 417 481 404 q 514 514 514 457 q 478 603 514 571 q 383 636 443 636 q 256 558 304 636 q 207 353 207 481 q 265 149 207 225 q 422 74 322 74 q 604 143 521 74 m 264 -297 q 264 -309 264 -297 q 281 -336 264 -321 q 329 -351 297 -351 q 385 -320 361 -351 q 408 -247 408 -289 q 384 -174 408 -204 q 319 -143 360 -143 q 239 -167 278 -143 l 211 -142 l 375 71 l 408 40 l 301 -97 q 354 -92 325 -92 q 466 -132 421 -92 q 511 -244 511 -172 q 457 -362 511 -315 q 332 -410 403 -410 q 216 -381 261 -410 q 171 -310 171 -353 q 197 -244 171 -267 q 253 -222 222 -222 q 283 -236 283 -222 q 274 -256 283 -239 q 264 -297 264 -272 z "},"è":{"ha":735,"x_min":63,"x_max":663,"o":"m 382 -19 q 149 78 236 -19 q 63 340 63 175 q 161 606 63 504 q 422 708 260 708 q 597 649 536 708 q 658 500 658 589 q 587 340 658 411 q 393 269 515 269 q 294 286 349 269 q 240 335 240 303 q 247 356 240 346 q 258 365 253 365 q 290 356 263 365 q 350 347 317 347 q 480 394 433 347 q 526 501 526 442 q 492 599 526 560 q 394 639 457 639 q 256 560 306 639 q 206 347 206 482 q 258 142 206 213 q 422 72 311 72 q 614 151 533 72 q 628 157 619 157 q 650 144 638 157 q 663 120 663 131 q 657 104 663 110 q 382 -19 550 -19 m 307 868 q 229 967 229 906 q 288 1056 229 1028 l 504 839 l 464 790 l 307 868 z "},"é":{"ha":735,"x_min":63,"x_max":663,"o":"m 382 -19 q 149 78 236 -19 q 63 340 63 175 q 161 606 63 504 q 422 708 260 708 q 597 649 536 708 q 658 500 658 589 q 587 340 658 411 q 393 269 515 269 q 294 286 349 269 q 240 335 240 303 q 247 356 240 346 q 258 365 253 365 q 290 356 263 365 q 350 347 317 347 q 480 394 433 347 q 526 501 526 442 q 492 599 526 560 q 394 639 457 639 q 256 560 306 639 q 206 347 206 482 q 258 142 206 213 q 422 72 311 72 q 614 151 533 72 q 628 157 619 157 q 650 144 638 157 q 663 120 663 131 q 657 104 663 110 q 382 -19 550 -19 m 446 1056 q 504 967 504 1028 q 426 868 504 906 l 269 790 l 229 839 l 446 1056 z "},"ê":{"ha":735,"x_min":63,"x_max":663,"o":"m 382 -19 q 149 78 236 -19 q 63 340 63 175 q 161 606 63 504 q 422 708 260 708 q 597 649 536 708 q 658 500 658 589 q 587 340 658 411 q 393 269 515 269 q 294 286 349 269 q 240 335 240 303 q 247 356 240 346 q 258 365 253 365 q 290 356 263 365 q 350 347 317 347 q 480 394 433 347 q 526 501 526 442 q 492 599 526 560 q 394 639 457 639 q 256 560 306 639 q 206 347 206 482 q 258 142 206 213 q 422 72 311 72 q 614 151 533 72 q 628 157 619 157 q 650 144 638 157 q 663 120 663 131 q 657 104 663 110 q 382 -19 550 -19 m 349 1049 l 386 1049 q 463 969 411 1033 q 557 829 514 906 l 513 790 l 367 906 l 222 790 l 176 829 q 271 969 221 907 q 349 1049 321 1032 z "},"ë":{"ha":735,"x_min":63,"x_max":663,"o":"m 382 -19 q 149 78 236 -19 q 63 340 63 175 q 161 606 63 504 q 422 708 260 708 q 597 649 536 708 q 658 500 658 589 q 587 340 658 411 q 393 269 515 269 q 294 286 349 269 q 240 335 240 303 q 247 356 240 346 q 258 365 253 365 q 290 356 263 365 q 350 347 317 347 q 480 394 433 347 q 526 501 526 442 q 492 599 526 560 q 394 639 457 639 q 256 560 306 639 q 206 347 206 482 q 258 142 206 213 q 422 72 311 72 q 614 151 533 72 q 628 157 619 157 q 650 144 638 157 q 663 120 663 131 q 657 104 663 110 q 382 -19 550 -19 m 181 856 q 165 872 181 856 q 150 914 150 888 q 180 973 150 940 q 235 1006 210 1006 q 292 974 261 1006 q 322 915 322 942 q 292 856 322 888 q 236 824 261 824 q 181 856 211 824 m 443 856 q 428 872 443 856 q 413 914 413 888 q 442 973 413 940 q 498 1006 472 1006 q 554 974 524 1006 q 585 915 585 942 q 554 856 585 888 q 499 824 524 824 q 443 856 474 824 z "},"ì":{"ha":433,"x_min":49,"x_max":413,"o":"m 317 75 q 386 104 350 75 l 413 68 q 257 -19 333 -19 q 175 15 200 -19 q 150 128 150 50 l 150 558 q 122 589 150 589 l 61 589 l 49 625 q 140 685 89 661 q 222 708 192 708 q 276 664 276 708 l 275 122 q 317 75 275 75 m 157 868 q 79 967 79 906 q 138 1056 79 1028 l 354 839 l 314 790 l 157 868 z "},"í":{"ha":433,"x_min":49,"x_max":413,"o":"m 317 75 q 386 104 350 75 l 413 68 q 257 -19 333 -19 q 175 15 200 -19 q 150 128 150 50 l 150 558 q 122 589 150 589 l 61 589 l 49 625 q 140 685 89 661 q 222 708 192 708 q 276 664 276 708 l 275 122 q 317 75 275 75 m 296 1056 q 354 967 354 1028 q 276 868 354 906 l 119 790 l 79 839 l 296 1056 z "},"î":{"ha":433,"x_min":26,"x_max":413,"o":"m 317 75 q 386 104 350 75 l 413 68 q 257 -19 333 -19 q 175 15 200 -19 q 150 128 150 50 l 150 558 q 122 589 150 589 l 61 589 l 49 625 q 140 685 89 661 q 222 708 192 708 q 276 664 276 708 l 275 122 q 317 75 275 75 m 199 1049 l 236 1049 q 313 969 261 1033 q 407 829 364 906 l 363 790 l 217 906 l 72 790 l 26 829 q 121 969 71 907 q 199 1049 171 1032 z "},"ï":{"ha":433,"x_min":0,"x_max":435,"o":"m 317 75 q 386 104 350 75 l 413 68 q 257 -19 333 -19 q 175 15 200 -19 q 150 128 150 50 l 150 558 q 122 589 150 589 l 61 589 l 49 625 q 140 685 89 661 q 222 708 192 708 q 276 664 276 708 l 275 122 q 317 75 275 75 m 31 856 q 15 872 31 856 q 0 914 0 888 q 30 973 0 940 q 85 1006 60 1006 q 142 974 111 1006 q 172 915 172 942 q 142 856 172 888 q 86 824 111 824 q 31 856 61 824 m 293 856 q 278 872 293 856 q 263 914 263 888 q 292 973 263 940 q 348 1006 322 1006 q 404 974 374 1006 q 435 915 435 942 q 404 856 435 888 q 349 824 374 824 q 293 856 324 824 z "},"ð":{"ha":811,"x_min":60,"x_max":776,"o":"m 103 929 q 103 962 103 929 q 162 1046 103 994 q 322 1097 221 1097 q 498 1040 422 1097 q 619 897 574 983 q 697 703 665 811 q 751 342 751 514 q 658 76 751 171 q 405 -19 564 -19 q 153 75 246 -19 q 60 331 60 169 q 153 586 60 492 q 406 681 246 681 q 599 597 524 681 q 492 912 564 789 q 328 1035 419 1035 q 249 1002 278 1035 q 221 931 221 969 q 230 866 221 892 q 250 828 239 840 q 281 790 281 796 q 258 776 281 776 q 144 820 186 776 q 103 929 103 864 m 405 608 q 358 608 405 608 q 258 533 311 608 q 204 333 204 458 q 265 131 204 207 q 420 56 326 56 q 568 126 514 56 q 622 322 622 197 q 560 527 622 446 q 405 608 499 608 m 747 931 l 397 756 q 403 835 397 811 q 426 868 408 860 l 776 1043 q 771 963 776 986 q 747 931 765 940 z "},"ñ":{"ha":894,"x_min":56,"x_max":867,"o":"m 283 222 q 328 43 283 106 l 344 21 l 328 0 l 85 0 l 69 43 l 99 50 q 145 80 133 58 q 157 154 157 101 l 157 544 q 129 575 157 575 l 68 575 l 56 611 q 148 671 96 647 q 229 694 200 694 q 283 650 283 694 l 283 501 q 392 650 319 592 q 552 708 464 708 q 685 649 640 708 q 729 458 729 589 l 729 122 q 771 75 729 75 q 840 104 803 75 l 867 68 q 711 -19 788 -19 q 629 15 654 -19 q 604 128 604 50 l 604 458 q 485 600 604 600 q 339 495 394 600 q 283 222 283 390 m 494 826 q 422 851 461 826 q 363 875 382 875 q 269 821 324 875 l 221 864 q 400 999 319 999 q 471 974 432 999 q 531 950 510 950 q 625 1004 569 950 l 672 961 q 494 826 576 826 z "},"ò":{"ha":803,"x_min":63,"x_max":740,"o":"m 556 529 q 497 606 536 576 q 406 636 458 636 q 262 555 317 636 q 207 342 207 474 q 258 133 207 211 q 397 56 310 56 q 540 134 485 56 q 594 326 594 213 q 556 529 594 440 m 401 -19 q 324 -19 401 -19 q 154 79 246 -19 q 63 345 63 178 q 154 610 63 513 q 401 708 246 708 q 649 610 557 708 q 740 345 740 513 q 649 79 740 178 q 401 -19 557 -19 m 333 868 q 256 967 256 906 q 314 1056 256 1028 l 531 839 l 490 790 l 333 868 z "},"ó":{"ha":803,"x_min":63,"x_max":740,"o":"m 556 529 q 497 606 536 576 q 406 636 458 636 q 262 555 317 636 q 207 342 207 474 q 258 133 207 211 q 397 56 310 56 q 540 134 485 56 q 594 326 594 213 q 556 529 594 440 m 401 -19 q 324 -19 401 -19 q 154 79 246 -19 q 63 345 63 178 q 154 610 63 513 q 401 708 246 708 q 649 610 557 708 q 740 345 740 513 q 649 79 740 178 q 401 -19 557 -19 m 510 1056 q 568 967 568 1028 q 490 868 568 906 l 333 790 l 293 839 l 510 1056 z "},"ô":{"ha":803,"x_min":63,"x_max":740,"o":"m 556 529 q 497 606 536 576 q 406 636 458 636 q 262 555 317 636 q 207 342 207 474 q 258 133 207 211 q 397 56 310 56 q 540 134 485 56 q 594 326 594 213 q 556 529 594 440 m 401 -19 q 324 -19 401 -19 q 154 79 246 -19 q 63 345 63 178 q 154 610 63 513 q 401 708 246 708 q 649 610 557 708 q 740 345 740 513 q 649 79 740 178 q 401 -19 557 -19 m 386 1049 l 424 1049 q 500 969 449 1033 q 594 829 551 906 l 550 790 l 404 906 l 260 790 l 214 829 q 308 969 258 907 q 386 1049 358 1032 z "},"õ":{"ha":803,"x_min":63,"x_max":740,"o":"m 556 529 q 497 606 536 576 q 406 636 458 636 q 262 555 317 636 q 207 342 207 474 q 258 133 207 211 q 397 56 310 56 q 540 134 485 56 q 594 326 594 213 q 556 529 594 440 m 401 -19 q 324 -19 401 -19 q 154 79 246 -19 q 63 345 63 178 q 154 610 63 513 q 401 708 246 708 q 649 610 557 708 q 740 345 740 513 q 649 79 740 178 q 401 -19 557 -19 m 453 826 q 380 851 419 826 q 321 875 340 875 q 228 821 282 875 l 179 864 q 358 999 278 999 q 429 974 390 999 q 489 950 468 950 q 583 1004 528 950 l 631 961 q 453 826 535 826 z "},"ö":{"ha":803,"x_min":63,"x_max":740,"o":"m 556 529 q 497 606 536 576 q 406 636 458 636 q 262 555 317 636 q 207 342 207 474 q 258 133 207 211 q 397 56 310 56 q 540 134 485 56 q 594 326 594 213 q 556 529 594 440 m 401 -19 q 324 -19 401 -19 q 154 79 246 -19 q 63 345 63 178 q 154 610 63 513 q 401 708 246 708 q 649 610 557 708 q 740 345 740 513 q 649 79 740 178 q 401 -19 557 -19 m 218 856 q 203 872 218 856 q 188 914 188 888 q 217 973 188 940 q 273 1006 247 1006 q 329 974 299 1006 q 360 915 360 942 q 329 856 360 888 q 274 824 299 824 q 218 856 249 824 m 481 856 q 465 872 481 856 q 450 914 450 888 q 480 973 450 940 q 535 1006 510 1006 q 592 974 561 1006 q 622 915 622 942 q 592 856 622 888 q 536 824 561 824 q 481 856 511 824 z "},"÷":{"ha":863,"x_min":138,"x_max":725,"o":"m 138 443 l 138 549 l 725 549 l 725 443 l 138 443 m 375 668 q 360 684 375 668 q 344 726 344 700 q 374 785 344 753 q 430 818 404 818 q 486 786 456 818 q 517 727 517 754 q 486 668 517 700 q 431 636 456 636 q 375 668 406 636 m 375 206 q 360 222 375 206 q 344 264 344 238 q 374 323 344 290 q 430 356 404 356 q 486 324 456 356 q 517 265 517 292 q 486 206 517 238 q 431 174 456 174 q 375 206 406 174 z "},"ø":{"ha":803,"x_min":63,"x_max":740,"o":"m 556 529 q 497 606 536 576 q 406 636 458 636 q 262 555 317 636 q 207 342 207 474 q 258 133 207 211 q 397 56 310 56 q 540 134 485 56 q 594 326 594 213 q 556 529 594 440 m 401 -19 q 324 -19 401 -19 q 154 79 246 -19 q 63 345 63 178 q 154 610 63 513 q 401 708 246 708 q 649 610 557 708 q 740 345 740 513 q 649 79 740 178 q 401 -19 557 -19 m 286 -94 l 213 -94 l 524 785 l 599 785 l 286 -94 z "},"ù":{"ha":853,"x_min":42,"x_max":850,"o":"m 715 122 q 756 79 715 79 q 824 104 788 79 l 850 68 q 776 5 818 29 q 697 -19 733 -19 q 590 114 590 -19 q 495 17 558 53 q 344 -19 432 -19 q 199 41 256 -19 q 143 211 143 101 l 143 558 q 115 589 143 589 l 54 589 l 42 625 q 130 685 78 661 q 214 708 182 708 q 269 664 269 708 l 269 243 q 403 74 269 74 q 548 154 496 74 q 600 357 600 235 q 588 537 600 479 q 546 647 576 594 l 529 669 l 546 690 l 715 708 l 715 122 m 354 868 q 276 967 276 906 q 335 1056 276 1028 l 551 839 l 511 790 l 354 868 z "},"ú":{"ha":853,"x_min":42,"x_max":850,"o":"m 715 122 q 756 79 715 79 q 824 104 788 79 l 850 68 q 776 5 818 29 q 697 -19 733 -19 q 590 114 590 -19 q 495 17 558 53 q 344 -19 432 -19 q 199 41 256 -19 q 143 211 143 101 l 143 558 q 115 589 143 589 l 54 589 l 42 625 q 130 685 78 661 q 214 708 182 708 q 269 664 269 708 l 269 243 q 403 74 269 74 q 548 154 496 74 q 600 357 600 235 q 588 537 600 479 q 546 647 576 594 l 529 669 l 546 690 l 715 708 l 715 122 m 544 1056 q 603 967 603 1028 q 525 868 603 906 l 368 790 l 328 839 l 544 1056 z "},"û":{"ha":853,"x_min":42,"x_max":850,"o":"m 715 122 q 756 79 715 79 q 824 104 788 79 l 850 68 q 776 5 818 29 q 697 -19 733 -19 q 590 114 590 -19 q 495 17 558 53 q 344 -19 432 -19 q 199 41 256 -19 q 143 211 143 101 l 143 558 q 115 589 143 589 l 54 589 l 42 625 q 130 685 78 661 q 214 708 182 708 q 269 664 269 708 l 269 243 q 403 74 269 74 q 548 154 496 74 q 600 357 600 235 q 588 537 600 479 q 546 647 576 594 l 529 669 l 546 690 l 715 708 l 715 122 m 408 1049 l 446 1049 q 522 969 471 1033 q 617 829 574 906 l 572 790 l 426 906 l 282 790 l 236 829 q 331 969 281 907 q 408 1049 381 1032 z "},"ü":{"ha":853,"x_min":42,"x_max":850,"o":"m 715 122 q 756 79 715 79 q 824 104 788 79 l 850 68 q 776 5 818 29 q 697 -19 733 -19 q 590 114 590 -19 q 495 17 558 53 q 344 -19 432 -19 q 199 41 256 -19 q 143 211 143 101 l 143 558 q 115 589 143 589 l 54 589 l 42 625 q 130 685 78 661 q 214 708 182 708 q 269 664 269 708 l 269 243 q 403 74 269 74 q 548 154 496 74 q 600 357 600 235 q 588 537 600 479 q 546 647 576 594 l 529 669 l 546 690 l 715 708 l 715 122 m 239 856 q 224 872 239 856 q 208 914 208 888 q 238 973 208 940 q 294 1006 268 1006 q 350 974 319 1006 q 381 915 381 942 q 350 856 381 888 q 294 824 319 824 q 239 856 269 824 m 501 856 q 486 872 501 856 q 471 914 471 888 q 501 973 471 940 q 556 1006 531 1006 q 613 974 582 1006 q 643 915 643 942 q 613 856 643 888 q 557 824 582 824 q 501 856 532 824 z "},"ý":{"ha":847,"x_min":42,"x_max":713,"o":"m 404 -386 q 228 -327 290 -386 q 167 -193 167 -268 q 214 -69 167 -118 q 343 -19 261 -19 q 369 -35 369 -19 q 353 -57 369 -40 q 319 -107 336 -74 q 301 -190 301 -140 q 334 -277 301 -240 q 422 -314 367 -314 q 549 -243 508 -314 q 589 -53 589 -172 l 589 153 q 493 56 557 92 q 342 21 429 21 q 199 81 254 21 q 143 251 143 142 l 143 560 q 115 590 143 590 l 54 590 l 42 626 q 130 686 78 663 q 214 710 182 710 q 269 665 269 710 l 269 283 q 400 114 269 114 q 545 184 493 114 q 597 373 597 254 q 588 547 597 492 q 543 649 578 603 l 526 671 l 543 692 l 713 710 l 713 -31 q 630 -294 713 -201 q 404 -386 547 -386 m 544 1056 q 603 967 603 1028 q 525 868 603 906 l 368 790 l 328 839 l 544 1056 z "},"þ":{"ha":826,"x_min":42,"x_max":764,"o":"m 268 1022 l 268 621 q 478 708 358 708 q 681 615 599 708 q 764 362 764 521 q 677 92 764 203 q 458 -19 590 -19 q 319 18 375 -19 q 307 43 307 26 q 328 78 307 78 q 359 67 329 78 q 426 56 389 56 q 563 138 510 56 q 617 342 617 219 q 563 541 617 465 q 424 617 510 617 q 268 563 339 617 l 268 -215 q 280 -290 268 -268 q 326 -319 292 -311 l 356 -326 l 340 -369 l 99 -369 l 82 -349 l 99 -326 q 143 -147 143 -264 l 143 924 q 114 969 143 963 l 42 985 l 42 1031 q 126 1068 64 1050 q 235 1086 189 1086 q 268 1022 268 1086 z "},"ÿ":{"ha":847,"x_min":42,"x_max":713,"o":"m 404 -386 q 228 -327 290 -386 q 167 -193 167 -268 q 214 -69 167 -118 q 343 -19 261 -19 q 369 -35 369 -19 q 353 -57 369 -40 q 319 -107 336 -74 q 301 -190 301 -140 q 334 -277 301 -240 q 422 -314 367 -314 q 549 -243 508 -314 q 589 -53 589 -172 l 589 153 q 493 56 557 92 q 342 21 429 21 q 199 81 254 21 q 143 251 143 142 l 143 560 q 115 590 143 590 l 54 590 l 42 626 q 130 686 78 663 q 214 710 182 710 q 269 665 269 710 l 269 283 q 400 114 269 114 q 545 184 493 114 q 597 373 597 254 q 588 547 597 492 q 543 649 578 603 l 526 671 l 543 692 l 713 710 l 713 -31 q 630 -294 713 -201 q 404 -386 547 -386 m 236 856 q 221 872 236 856 q 206 914 206 888 q 235 973 206 940 q 291 1006 265 1006 q 347 974 317 1006 q 378 915 378 942 q 347 856 378 888 q 292 824 317 824 q 236 856 267 824 m 499 856 q 483 872 499 856 q 468 914 468 888 q 498 973 468 940 q 553 1006 528 1006 q 610 974 579 1006 q 640 915 640 942 q 610 856 640 888 q 554 824 579 824 q 499 856 529 824 z "},"ı":{"ha":433,"x_min":49,"x_max":413,"o":"m 317 75 q 386 104 350 75 l 413 68 q 257 -19 333 -19 q 175 15 200 -19 q 150 128 150 50 l 150 558 q 122 589 150 589 l 61 589 l 49 625 q 140 685 89 661 q 222 708 192 708 q 276 664 276 708 l 275 122 q 317 75 275 75 z "},"Ł":{"ha":764,"x_min":35,"x_max":731,"o":"m 314 718 l 314 185 q 331 100 314 121 q 403 79 349 79 l 524 79 q 626 103 597 79 q 675 203 656 128 l 683 235 l 731 218 l 731 -19 l 703 -35 l 692 -19 q 633 0 676 0 l 78 0 l 63 44 l 92 53 q 160 92 143 68 q 176 175 176 115 l 176 813 q 158 901 176 876 q 88 942 140 926 l 56 950 l 72 997 l 376 997 l 394 975 l 376 950 q 328 853 342 904 q 314 718 314 801 m 424 533 l 35 339 q 41 427 35 400 q 68 464 47 454 l 457 658 q 451 570 457 597 q 424 533 444 543 z "},"ł":{"ha":419,"x_min":-7,"x_max":415,"o":"m 303 75 q 372 104 336 75 l 399 68 q 243 -19 319 -19 q 161 15 186 -19 q 136 128 136 50 l 136 936 q 108 967 136 967 l 47 967 l 35 1003 q 126 1063 75 1039 q 208 1086 178 1086 q 263 1042 263 1086 l 261 122 q 303 75 261 75 m 382 533 l -7 339 q -1 427 -7 400 q 26 464 6 454 l 415 658 q 409 570 415 597 q 382 533 403 543 z "},"Œ":{"ha":1328,"x_min":49,"x_max":1240,"o":"m 508 997 l 1019 997 q 1178 1026 1139 997 l 1203 1044 l 1225 1026 l 1225 779 l 1178 763 l 1169 794 q 1121 894 1150 869 q 1018 918 1092 918 l 883 918 q 812 897 829 918 q 794 813 794 876 l 794 546 l 971 546 q 1081 610 1035 546 l 1092 625 l 1119 610 l 1119 372 l 1072 356 l 1064 388 q 1020 451 1051 435 q 913 467 989 467 l 794 467 l 794 185 q 812 100 794 121 q 883 79 829 79 l 1033 79 q 1136 103 1107 79 q 1185 203 1165 128 l 1193 235 l 1240 218 l 1240 -19 l 1213 -35 l 1201 -19 q 1143 0 1186 0 l 508 0 q 167 140 285 0 q 49 497 49 279 q 167 856 49 715 q 508 997 285 997 m 521 63 q 657 97 596 63 l 657 879 q 498 936 582 936 q 354 898 414 936 q 261 794 294 860 q 199 490 199 668 q 286 187 199 311 q 521 63 374 63 z "},"œ":{"ha":1269,"x_min":63,"x_max":1197,"o":"m 556 529 q 497 606 536 576 q 406 636 458 636 q 262 555 317 636 q 207 342 207 474 q 258 133 207 211 q 397 56 310 56 q 540 134 485 56 q 594 326 594 213 q 556 529 594 440 m 401 -19 q 324 -19 401 -19 q 154 79 246 -19 q 63 345 63 178 q 154 610 63 513 q 401 708 246 708 q 649 610 557 708 q 740 345 740 513 q 649 79 740 178 q 401 -19 557 -19 m 917 -19 q 684 78 771 -19 q 597 340 597 175 q 696 606 597 504 q 957 708 794 708 q 1132 649 1071 708 q 1193 500 1193 589 q 1122 340 1193 411 q 928 269 1050 269 q 829 286 883 269 q 775 335 775 303 q 781 356 775 346 q 792 365 788 365 q 824 356 797 365 q 885 347 851 347 q 1015 394 968 347 q 1061 501 1061 442 q 1026 599 1061 560 q 929 639 992 639 q 790 560 840 639 q 740 347 740 482 q 793 142 740 213 q 957 72 846 72 q 1149 151 1068 72 q 1163 157 1154 157 q 1185 144 1172 157 q 1197 120 1197 131 q 1192 104 1197 110 q 917 -19 1085 -19 z "},"Š":{"ha":794,"x_min":63,"x_max":725,"o":"m 206 217 q 206 183 206 217 q 261 104 206 150 q 401 58 317 58 q 535 100 486 58 q 585 206 585 142 q 557 312 585 269 q 485 381 529 354 q 388 431 442 407 q 281 482 335 456 q 184 541 228 508 q 113 626 140 574 q 85 747 85 679 q 163 938 85 858 q 383 1017 242 1017 q 613 960 525 1017 q 700 813 700 903 q 658 696 700 742 q 551 650 615 650 q 522 667 522 650 q 533 686 522 671 q 564 797 564 735 q 515 899 564 858 q 386 939 467 939 q 261 892 306 939 q 217 788 217 846 q 244 692 217 731 q 317 628 272 654 q 417 578 363 603 q 525 526 471 554 q 624 465 579 499 q 697 376 669 431 q 725 251 725 321 q 642 54 725 128 q 407 -19 560 -19 q 158 43 254 -19 q 63 204 63 106 q 108 321 63 275 q 221 367 153 367 q 250 350 250 367 q 239 331 250 347 q 206 217 206 283 m 425 1110 l 388 1110 q 310 1189 360 1126 q 215 1329 260 1251 l 261 1368 l 406 1251 l 551 1368 l 596 1329 q 501 1189 553 1253 q 425 1110 450 1125 z "},"š":{"ha":643,"x_min":75,"x_max":592,"o":"m 203 168 q 244 79 203 110 q 338 49 285 49 q 428 80 392 49 q 465 151 465 111 q 441 218 465 192 q 390 258 417 244 q 314 293 364 272 q 234 329 264 314 q 167 372 204 344 q 92 515 92 425 q 163 656 92 604 q 339 708 235 708 q 508 669 443 708 q 574 572 574 631 q 541 478 574 513 q 457 444 508 444 q 428 463 428 444 q 438 491 428 467 q 449 540 449 515 q 414 617 449 592 q 328 642 379 642 q 245 613 278 642 q 213 544 213 585 q 238 475 213 504 q 293 430 264 446 q 374 393 322 414 q 453 358 425 372 q 519 319 482 344 q 592 182 592 269 q 517 38 592 94 q 326 -19 442 -19 q 143 28 211 -19 q 75 154 75 75 q 107 232 75 201 q 179 263 139 263 q 219 246 219 263 q 211 220 219 244 q 203 168 203 196 m 340 803 l 303 803 q 225 882 275 819 q 131 1022 175 944 l 176 1061 l 321 944 l 467 1061 l 511 1022 q 417 882 468 946 q 340 803 365 818 z "},"Ÿ":{"ha":869,"x_min":7,"x_max":835,"o":"m 610 811 q 626 869 626 842 q 609 915 626 896 q 568 942 592 935 l 536 950 l 553 997 l 817 997 l 835 975 l 814 950 q 715 803 765 892 l 500 421 l 500 185 q 519 96 500 122 q 592 56 539 69 l 624 47 l 607 0 l 303 0 l 285 22 l 303 47 q 353 147 338 96 q 368 279 368 197 l 368 410 l 146 800 q 7 975 78 921 l 25 997 l 338 997 l 354 950 l 322 942 q 274 919 289 933 q 260 887 260 906 q 303 793 260 868 l 453 531 l 610 811 m 285 1163 q 269 1178 285 1163 q 254 1221 254 1194 q 284 1280 254 1247 q 340 1313 314 1313 q 396 1281 365 1313 q 426 1222 426 1249 q 396 1163 426 1194 q 340 1131 365 1131 q 285 1163 315 1131 m 547 1163 q 532 1178 547 1163 q 517 1221 517 1194 q 547 1280 517 1247 q 602 1313 576 1313 q 658 1281 628 1313 q 689 1222 689 1249 q 658 1163 689 1194 q 603 1131 628 1131 q 547 1163 578 1131 z "},"Ž":{"ha":819,"x_min":28,"x_max":792,"o":"m 285 997 l 792 997 l 243 79 l 557 79 q 660 103 631 79 q 708 203 689 128 l 717 235 l 764 218 l 764 -19 l 736 -35 l 725 -19 q 667 0 710 0 l 28 0 l 579 918 l 286 918 q 183 894 213 918 q 135 794 154 869 l 126 763 l 79 779 l 79 1026 l 101 1044 l 126 1026 q 285 997 165 997 m 454 1110 l 417 1110 q 339 1189 389 1126 q 244 1329 289 1251 l 290 1368 l 435 1251 l 581 1368 l 625 1329 q 531 1189 582 1253 q 454 1110 479 1125 z "},"ž":{"ha":665,"x_min":46,"x_max":619,"o":"m 435 81 q 509 92 488 81 q 539 139 531 104 l 556 213 l 599 197 l 599 -17 l 582 -33 q 417 0 531 0 l 61 0 l 46 43 l 436 610 l 228 610 q 153 598 175 610 q 124 551 132 586 l 107 478 l 64 493 l 64 707 l 81 724 q 246 690 132 690 l 592 690 q 619 631 619 667 l 582 608 l 217 81 l 435 81 m 360 803 l 322 803 q 244 882 294 819 q 150 1022 194 944 l 196 1061 l 340 944 l 486 1061 l 531 1022 q 436 882 488 946 q 360 803 385 818 z "},"ƒ":{"ha":644,"x_min":-110,"x_max":714,"o":"m 313 624 l 313 507 l 574 507 q 542 419 574 444 l 313 419 l 313 -18 q 249 -247 313 -162 q 63 -331 186 -331 q -61 -292 -12 -331 q -110 -195 -110 -254 q -71 -100 -110 -136 q 26 -64 -32 -64 q 53 -79 53 -64 q 43 -94 53 -83 q 14 -176 14 -131 q 35 -247 14 -222 q 94 -271 57 -271 q 160 -234 132 -271 q 188 -125 188 -197 l 188 419 l 3 419 q 35 507 3 483 l 188 507 l 188 532 q 269 886 188 756 q 507 1017 350 1017 q 656 974 597 1017 q 714 867 714 931 q 675 765 714 803 q 578 726 636 726 q 551 742 551 726 q 561 758 551 744 q 589 848 589 799 q 560 922 589 897 q 482 947 532 947 q 313 624 313 947 z "},"ˆ":{"ha":519,"x_min":69,"x_max":450,"o":"m 242 1049 l 279 1049 q 356 969 304 1033 q 450 829 407 906 l 406 790 l 260 906 l 115 790 l 69 829 q 164 969 114 907 q 242 1049 214 1032 z "},"ˇ":{"ha":519,"x_min":69,"x_max":450,"o":"m 279 803 l 242 803 q 164 882 214 819 q 69 1022 114 944 l 115 1061 l 260 944 l 406 1061 l 450 1022 q 356 882 407 946 q 279 803 304 818 z "},"˘":{"ha":476,"x_min":65,"x_max":411,"o":"m 411 1000 q 363 856 411 906 q 238 806 315 806 q 113 856 161 806 q 65 1000 65 906 l 142 1000 q 169 935 142 960 q 238 911 197 911 q 307 935 279 911 q 335 1000 335 960 l 411 1000 z "},"˙":{"ha":450,"x_min":139,"x_max":311,"o":"m 169 856 q 154 872 169 856 q 139 914 139 888 q 169 973 139 940 q 224 1006 199 1006 q 281 974 250 1006 q 311 915 311 942 q 281 856 311 888 q 225 824 250 824 q 169 856 200 824 z "},"˚":{"ha":440,"x_min":63,"x_max":378,"o":"m 175 972 q 167 960 175 972 q 160 914 160 949 q 175 856 160 879 q 219 833 190 833 q 263 856 247 833 q 279 914 279 879 q 263 972 279 949 q 219 994 247 994 q 175 972 190 994 m 103 808 q 83 828 103 808 q 63 914 63 849 q 103 1021 63 979 q 219 1063 143 1063 q 337 1021 296 1063 q 378 914 378 979 q 337 808 378 849 q 219 767 296 767 q 103 808 143 767 z "},"˛":{"ha":539,"x_min":33,"x_max":476,"o":"m 144 -228 q 168 -295 144 -272 q 234 -318 192 -318 q 331 -285 276 -318 q 429 -192 385 -251 l 476 -235 q 200 -410 354 -410 q 81 -367 129 -410 q 33 -248 33 -325 q 99 -99 33 -171 q 311 71 165 -26 l 347 17 q 144 -228 144 -117 z "},"˜":{"ha":567,"x_min":57,"x_max":508,"o":"m 331 826 q 258 851 297 826 q 199 875 218 875 q 106 821 160 875 l 57 864 q 236 999 156 999 q 307 974 268 999 q 367 950 346 950 q 461 1004 406 950 l 508 961 q 331 826 413 826 z "},"˝":{"ha":738,"x_min":88,"x_max":650,"o":"m 304 1056 q 363 967 363 1028 q 285 868 363 906 l 128 790 l 88 839 l 304 1056 m 592 1056 q 650 967 650 1028 q 572 868 650 906 l 415 790 l 375 839 l 592 1056 z "},"́":{"ha":400,"x_min":88,"x_max":363,"o":"m 304 1056 q 363 967 363 1028 q 285 868 363 906 l 128 790 l 88 839 l 304 1056 z "},"π":{"ha":883,"x_min":25,"x_max":869,"o":"m 257 690 l 869 690 l 858 618 l 783 607 q 714 556 722 597 q 638 102 638 140 q 674 64 638 64 q 774 94 711 64 l 788 46 q 601 -19 678 -19 q 529 5 550 -19 q 508 69 508 29 q 517 153 508 108 l 593 588 l 360 588 l 292 206 q 282 113 282 151 q 296 43 282 75 l 306 21 l 285 0 l 50 0 l 58 46 l 104 65 q 146 96 135 78 q 165 163 157 114 l 242 588 l 181 588 l 79 454 q 25 482 31 454 q 84 595 60 554 q 136 658 108 636 q 189 685 164 679 q 257 690 214 690 z "},"–":{"ha":1082,"x_min":69,"x_max":1014,"o":"m 978 364 l 69 350 q 106 447 69 418 l 1014 461 q 978 364 1014 392 z "},"—":{"ha":1264,"x_min":69,"x_max":1193,"o":"m 1157 364 l 69 350 q 106 447 69 418 l 1193 461 q 1157 364 1193 392 z "},"‘":{"ha":313,"x_min":47,"x_max":256,"o":"m 138 728 q 47 821 47 728 q 76 902 47 860 q 161 1006 104 944 l 215 1064 l 256 1038 l 192 913 q 175 853 175 879 q 207 804 175 828 l 232 788 l 239 754 l 215 744 q 138 728 172 728 z "},"’":{"ha":313,"x_min":57,"x_max":265,"o":"m 175 1061 q 265 968 265 1061 q 237 887 265 929 q 151 783 208 844 l 97 725 l 57 751 l 121 876 q 138 935 138 910 q 106 985 138 961 l 81 1001 l 74 1035 l 97 1044 q 175 1061 140 1061 z "},"‚":{"ha":265,"x_min":10,"x_max":218,"o":"m 128 165 q 218 72 218 165 q 190 -9 218 33 q 104 -112 161 -51 l 50 -171 l 10 -144 l 74 -19 q 90 40 90 14 q 58 89 90 65 l 33 106 l 26 139 l 50 149 q 128 165 93 165 z "},"“":{"ha":526,"x_min":47,"x_max":469,"o":"m 138 728 q 47 821 47 728 q 76 902 47 860 q 161 1006 104 944 l 215 1064 l 256 1038 l 192 913 q 175 853 175 879 q 207 804 175 828 l 232 788 l 239 754 l 215 744 q 138 728 172 728 m 351 728 q 261 821 261 728 q 290 902 261 860 q 375 1006 318 944 l 429 1064 l 469 1038 l 406 913 q 389 853 389 879 q 421 804 389 828 l 446 788 l 453 754 l 429 744 q 351 728 386 728 z "},"”":{"ha":526,"x_min":57,"x_max":479,"o":"m 175 1061 q 265 968 265 1061 q 237 887 265 929 q 151 783 208 844 l 97 725 l 57 751 l 121 876 q 138 935 138 910 q 106 985 138 961 l 81 1001 l 74 1035 l 97 1044 q 175 1061 140 1061 m 389 1061 q 479 968 479 1061 q 451 887 479 929 q 365 783 422 844 l 311 725 l 271 751 l 335 876 q 351 935 351 910 q 319 985 351 961 l 294 1001 l 288 1035 l 311 1044 q 389 1061 354 1061 z "},"„":{"ha":479,"x_min":10,"x_max":432,"o":"m 128 167 q 218 74 218 167 q 190 -8 218 35 q 104 -111 161 -50 l 50 -169 l 10 -143 l 74 -18 q 90 41 90 15 q 58 90 90 67 l 33 107 l 26 140 l 50 150 q 128 167 93 167 m 342 167 q 432 74 432 167 q 403 -8 432 35 q 318 -111 375 -50 l 264 -169 l 224 -143 l 288 -18 q 304 41 304 15 q 272 90 304 67 l 247 107 l 240 140 l 264 150 q 342 167 307 167 z "},"†":{"ha":821,"x_min":63,"x_max":757,"o":"m 92 768 q 63 838 63 789 q 92 907 63 886 q 193 892 135 900 l 290 878 q 353 867 329 872 q 332 1104 344 1010 q 410 1150 358 1150 q 488 1104 461 1150 q 467 867 476 1033 q 529 878 490 872 l 626 892 q 728 907 685 900 q 757 838 757 886 q 728 768 757 789 q 463 810 504 800 q 448 392 456 668 q 433 -24 440 117 q 410 -165 425 -165 q 387 -23 394 -165 q 372 391 379 119 q 357 810 365 663 q 92 768 324 801 z "},"‡":{"ha":821,"x_min":63,"x_max":757,"o":"m 453 158 q 728 204 496 171 q 757 135 757 183 q 728 65 757 86 q 457 108 476 103 q 488 -132 469 -57 q 410 -178 461 -178 q 332 -132 358 -178 q 363 108 350 -46 q 92 65 347 104 q 63 135 63 86 q 92 204 63 183 q 199 188 131 197 q 365 158 331 169 l 386 483 l 365 813 q 92 768 336 804 q 63 838 63 789 q 92 907 63 886 q 363 864 343 869 q 332 1104 350 1018 q 410 1150 358 1150 q 488 1104 461 1150 q 457 864 467 1015 q 728 907 476 869 q 757 838 757 886 q 728 768 757 789 q 453 813 486 804 l 432 483 l 453 158 z "},"•":{"ha":369,"x_min":68,"x_max":300,"o":"m 108 342 q 88 363 108 342 q 68 421 68 385 q 108 501 68 457 q 182 544 147 544 q 258 501 217 544 q 300 421 300 457 q 258 342 300 385 q 183 299 217 299 q 108 342 149 299 z "},"…":{"ha":796,"x_min":46,"x_max":749,"o":"m 76 13 q 61 28 76 13 q 46 71 46 44 q 76 130 46 97 q 131 163 106 163 q 188 131 157 163 q 218 72 218 99 q 188 13 218 44 q 132 -19 157 -19 q 76 13 107 -19 m 342 13 q 326 28 342 13 q 311 71 311 44 q 341 130 311 97 q 397 163 371 163 q 453 131 422 163 q 483 72 483 99 q 453 13 483 44 q 397 -19 422 -19 q 342 13 372 -19 m 607 13 q 592 28 607 13 q 576 71 576 44 q 606 130 576 97 q 662 163 636 163 q 718 131 688 163 q 749 72 749 99 q 718 13 749 44 q 663 -19 688 -19 q 607 13 638 -19 z "},"‰":{"ha":1969,"x_min":69,"x_max":1900,"o":"m 549 0 l 450 0 l 865 997 l 965 997 l 549 0 m 846 296 q 916 519 846 429 q 1102 608 986 608 q 1281 525 1218 608 q 1344 307 1344 442 q 1274 76 1344 172 q 1083 -19 1203 -19 q 944 30 1000 -19 q 867 147 888 79 q 846 296 846 215 m 1094 543 q 1061 543 1094 543 q 996 473 1029 543 q 963 294 963 403 q 996 115 963 185 q 1094 46 1029 46 q 1192 116 1158 46 q 1226 294 1226 186 q 1192 473 1226 403 q 1094 543 1158 543 m 69 703 q 140 926 69 836 q 326 1015 210 1015 q 505 932 442 1015 q 568 714 568 849 q 497 483 568 579 q 307 388 426 388 q 167 437 224 388 q 90 554 111 486 q 69 703 69 622 m 317 950 q 285 950 317 950 q 219 880 253 950 q 186 701 186 810 q 219 522 186 592 q 317 453 253 453 q 416 523 382 453 q 450 701 450 593 q 416 880 450 810 q 317 950 382 950 m 1401 296 q 1472 519 1401 429 q 1658 608 1542 608 q 1837 525 1774 608 q 1900 307 1900 442 q 1829 76 1900 172 q 1639 -19 1758 -19 q 1499 30 1556 -19 q 1422 147 1443 79 q 1401 296 1401 215 m 1649 543 q 1617 543 1649 543 q 1551 473 1585 543 q 1518 294 1518 403 q 1551 115 1518 185 q 1649 46 1585 46 q 1748 116 1714 46 q 1782 294 1782 186 q 1748 473 1782 403 q 1649 543 1714 543 z "},"‹":{"ha":413,"x_min":69,"x_max":343,"o":"m 224 100 q 100 307 131 251 q 69 387 69 363 q 101 469 69 411 q 224 675 132 526 q 343 611 297 669 q 153 388 313 557 q 343 164 311 221 q 224 100 299 106 z "},"›":{"ha":413,"x_min":69,"x_max":343,"o":"m 189 675 q 312 469 281 526 q 343 387 343 411 q 313 307 343 363 q 189 100 282 251 q 69 164 114 106 q 260 388 101 221 q 69 611 100 557 q 189 675 115 669 z "},"⁄":{"ha":515,"x_min":0,"x_max":515,"o":"m 99 0 l 0 0 l 415 997 l 515 997 l 99 0 z "},"₀":{"ha":619,"x_min":58,"x_max":557,"o":"m 58 296 q 128 519 58 429 q 315 608 199 608 q 494 525 431 608 q 557 307 557 442 q 486 76 557 172 q 296 -19 415 -19 q 156 30 213 -19 q 79 147 100 79 q 58 296 58 215 m 306 543 q 274 543 306 543 q 208 473 242 543 q 175 294 175 403 q 208 115 175 185 q 306 46 242 46 q 405 116 371 46 q 439 294 439 186 q 405 473 439 403 q 306 543 371 543 z "},"₁":{"ha":443,"x_min":19,"x_max":339,"o":"m 289 175 q 324 42 289 83 l 339 24 l 321 0 l 106 0 l 90 43 l 138 56 q 171 74 163 63 q 179 118 179 85 l 179 482 l 97 429 q 19 500 47 440 l 263 611 q 314 568 293 604 l 289 553 l 289 175 z "},"₂":{"ha":539,"x_min":38,"x_max":493,"o":"m 353 456 q 326 526 353 501 q 261 551 299 551 q 196 526 224 551 q 168 458 168 501 q 180 416 168 442 q 192 383 192 390 q 154 368 192 368 q 88 395 117 368 q 58 464 58 422 q 118 576 58 536 q 270 617 178 617 q 419 574 363 617 q 476 454 476 532 q 402 288 476 376 q 197 94 328 200 l 493 94 q 457 0 493 31 l 64 0 l 38 53 q 290 292 228 208 q 353 456 353 376 z "},"₃":{"ha":539,"x_min":54,"x_max":481,"o":"m 481 151 q 422 25 481 69 q 269 -19 363 -19 q 115 18 175 -19 q 54 122 54 56 q 84 191 54 164 q 145 218 114 218 q 183 215 176 218 q 189 199 189 213 q 176 173 186 199 q 165 120 165 147 q 192 72 165 93 q 260 50 219 50 q 331 78 300 50 q 361 153 361 106 q 335 235 361 200 q 238 271 308 271 q 196 267 211 271 q 171 263 181 263 q 144 286 144 263 q 153 309 144 303 q 201 322 163 315 q 344 453 344 350 q 318 519 344 494 q 258 543 292 543 q 203 523 225 543 q 181 471 181 503 q 192 419 181 439 q 204 397 204 400 q 167 379 204 379 q 100 406 129 379 q 71 474 71 432 q 125 572 71 538 q 260 607 179 607 q 402 567 340 607 q 464 456 464 528 q 358 311 464 361 q 449 248 418 290 q 481 151 481 206 z "},"₄":{"ha":549,"x_min":29,"x_max":511,"o":"m 324 118 l 324 132 l 29 132 l 226 606 l 297 606 l 321 585 l 149 203 l 324 203 l 324 306 q 304 379 324 349 l 321 399 l 435 411 l 435 203 l 511 203 q 483 132 511 154 l 436 132 q 468 42 443 71 l 483 24 l 467 0 l 251 0 l 235 43 l 282 56 q 315 74 307 63 q 324 118 324 85 z "},"₅":{"ha":539,"x_min":54,"x_max":481,"o":"m 260 50 q 280 50 260 50 q 331 79 300 50 q 361 159 361 108 q 328 249 361 210 q 206 288 294 288 q 110 274 179 288 l 89 314 l 104 597 l 451 597 q 415 504 451 533 l 182 504 l 174 343 q 258 351 215 351 q 424 296 368 351 q 481 158 481 240 q 421 28 481 76 q 268 -19 361 -19 q 115 18 175 -19 q 54 122 54 56 q 84 191 54 164 q 151 218 114 218 q 189 204 189 218 q 177 178 189 201 q 165 124 165 154 q 192 72 165 93 q 260 50 219 50 z "},"₆":{"ha":581,"x_min":56,"x_max":507,"o":"m 318 543 q 210 465 244 543 q 175 268 175 386 q 319 353 224 353 q 461 304 415 353 q 507 174 507 256 q 452 37 507 93 q 290 -19 397 -19 q 119 63 182 -19 q 56 280 56 144 q 124 512 56 415 q 321 608 193 608 q 447 575 397 608 q 497 492 497 542 q 468 413 497 443 q 401 383 439 383 q 363 403 363 383 q 375 426 363 407 q 388 475 388 446 q 368 524 388 504 q 318 543 349 543 m 379 165 q 379 190 379 165 q 358 247 379 215 q 296 279 338 279 q 230 244 254 279 q 206 161 206 210 q 286 50 206 50 q 355 83 331 50 q 379 165 379 115 z "},"₇":{"ha":456,"x_min":10,"x_max":440,"o":"m 268 169 q 250 82 250 121 q 272 21 250 43 l 246 0 l 78 0 l 63 42 l 93 51 q 165 126 143 68 l 315 513 l 46 513 q 10 606 10 540 l 440 606 l 268 169 z "},"₈":{"ha":556,"x_min":51,"x_max":497,"o":"m 268 614 q 317 614 268 614 q 424 575 365 614 q 482 454 482 536 q 389 308 482 372 q 497 150 497 247 q 435 27 497 74 q 273 -19 374 -19 q 112 19 172 -19 q 51 142 51 58 q 154 294 51 225 q 67 439 67 346 q 119 563 67 511 q 268 614 171 614 m 222 260 q 169 149 169 199 q 196 72 169 99 q 270 44 222 44 q 348 67 318 44 q 378 128 378 89 q 359 188 378 167 q 297 228 340 208 l 222 260 m 365 451 q 365 474 365 451 q 340 523 365 497 q 272 549 314 549 q 206 523 231 549 q 182 465 182 497 q 203 410 182 432 q 279 361 225 389 l 318 342 q 365 451 365 404 z "},"₉":{"ha":581,"x_min":72,"x_max":513,"o":"m 269 46 q 396 297 396 46 q 255 218 344 218 q 119 271 165 218 q 72 403 72 324 q 129 545 72 482 q 276 608 186 608 q 420 555 367 608 q 493 431 474 501 q 513 279 513 361 q 451 64 513 147 q 269 -19 389 -19 q 137 15 189 -19 q 85 104 85 50 q 112 165 85 142 q 176 188 139 188 q 214 169 214 188 q 203 147 214 167 q 193 103 193 126 q 215 63 193 79 q 269 46 236 46 m 279 296 q 345 327 318 296 q 372 417 372 358 q 351 506 372 475 q 292 538 329 538 q 228 506 256 538 q 201 424 201 475 q 279 296 201 296 z "},"€":{"ha":857,"x_min":-10,"x_max":799,"o":"m 257 549 q 256 485 256 531 q 258 411 256 439 l 533 411 q 500 324 533 350 l 268 324 q 496 58 311 58 q 613 99 563 58 q 663 208 663 139 q 647 281 663 246 l 631 314 q 635 331 631 328 q 660 333 640 333 q 760 296 721 333 q 799 197 799 258 q 708 38 799 96 q 500 -19 618 -19 q 247 73 342 -19 q 119 324 151 165 l -10 324 q 22 411 -10 388 l 108 411 q 106 481 106 435 q 107 549 106 528 l -10 549 q 22 636 -10 613 l 118 636 q 254 913 151 808 q 519 1017 357 1017 q 713 960 644 1017 q 781 835 781 904 q 739 723 781 767 q 625 679 697 679 q 603 693 603 679 q 624 721 603 699 q 663 818 663 763 q 624 906 663 874 q 519 939 585 939 q 349 854 411 939 q 265 636 288 769 l 533 636 q 500 549 533 575 l 257 549 z "},"™":{"ha":1503,"x_min":139,"x_max":1364,"o":"m 436 940 l 436 463 l 518 444 q 499 394 518 413 l 261 394 l 261 432 l 324 451 q 338 475 338 456 l 338 940 l 214 940 l 193 839 q 139 861 151 839 l 139 1004 l 157 1019 q 247 997 203 997 l 525 997 q 615 1019 569 997 l 632 1004 l 632 861 q 579 839 619 839 l 558 940 l 436 940 m 1132 394 l 1132 432 l 1186 451 q 1199 475 1199 456 l 1199 825 l 1031 454 l 976 454 l 810 821 l 810 463 l 883 444 q 861 394 883 411 l 668 394 l 668 432 l 722 451 q 736 475 736 456 l 736 929 l 669 949 q 692 997 669 981 l 836 997 l 1015 590 l 1107 794 q 1200 997 1168 931 l 1364 997 l 1364 958 l 1311 939 q 1297 914 1297 935 l 1297 463 l 1364 444 q 1342 394 1364 411 l 1132 394 z "},"Ω":{"ha":1058,"x_min":83,"x_max":975,"o":"m 750 835 q 712 888 750 835 q 529 940 674 940 q 308 835 385 940 q 232 567 232 731 q 444 211 232 317 l 406 0 l 136 0 l 136 43 l 222 63 q 295 91 275 75 q 324 149 315 107 l 332 194 q 146 351 208 254 q 83 567 83 447 q 198 889 83 763 q 529 1015 313 1015 q 860 889 746 1015 q 975 567 975 763 q 913 351 975 447 q 726 194 850 254 l 735 149 q 763 91 743 107 q 836 63 783 75 l 922 43 l 922 0 l 653 0 l 614 211 q 826 567 826 317 q 750 835 826 731 z "},"∂":{"ha":771,"x_min":47,"x_max":718,"o":"m 47 261 q 152 554 47 428 q 429 681 257 681 q 568 635 513 681 q 242 1028 510 908 l 271 1092 q 456 1001 375 1058 q 585 880 536 944 q 664 738 633 815 q 718 447 718 604 q 586 81 718 215 q 477 8 543 35 q 332 -19 411 -19 q 123 56 199 -19 q 47 261 47 131 m 574 383 q 528 547 574 485 q 417 608 483 608 q 307 575 351 608 q 238 489 263 542 q 186 276 186 381 q 231 113 186 171 q 350 56 275 56 q 508 147 443 56 q 574 383 574 238 z "},"∆":{"ha":969,"x_min":69,"x_max":900,"o":"m 69 0 l 413 997 l 554 997 l 900 0 l 69 0 m 461 853 l 206 86 l 725 86 l 461 853 z "},"∏":{"ha":944,"x_min":21,"x_max":925,"o":"m 803 -139 l 679 -139 l 679 1040 l 267 1040 l 267 -139 l 143 -139 l 143 1040 l 21 1040 l 21 1128 l 925 1128 l 925 1040 l 803 1040 l 803 -139 z "},"∑":{"ha":722,"x_min":28,"x_max":724,"o":"m 54 1128 l 722 1128 l 722 1040 l 208 1040 l 553 494 l 189 -31 l 724 -31 l 724 -139 l 115 -139 l 28 -54 l 415 503 l 54 1074 l 54 1128 z "},"−":{"ha":863,"x_min":138,"x_max":725,"o":"m 138 443 l 138 549 l 725 549 l 725 443 l 138 443 z "},"√":{"ha":814,"x_min":-54,"x_max":883,"o":"m 883 1126 l 883 1042 l 714 1042 l 425 -139 l 276 -139 l 83 418 l -28 374 l -54 440 l 179 533 l 361 -8 l 633 1126 l 883 1126 z "},"∞":{"ha":1169,"x_min":83,"x_max":1086,"o":"m 229 606 q 209 583 229 606 q 189 496 189 560 q 229 385 189 432 q 335 339 269 339 q 529 496 453 339 q 335 653 453 653 q 229 606 269 653 m 940 385 q 960 409 940 385 q 981 496 981 432 q 940 606 981 560 q 835 653 900 653 q 640 496 717 653 q 835 339 717 339 q 940 385 900 339 m 333 239 q 169 294 244 239 q 107 374 131 322 q 83 496 83 426 q 107 617 83 565 q 169 697 131 669 q 333 753 244 753 q 585 585 483 753 q 835 753 686 753 q 1008 690 931 753 q 1086 496 1086 628 q 1008 301 1086 364 q 835 239 931 239 q 585 407 686 239 q 333 239 483 239 z "},"∫":{"ha":624,"x_min":-42,"x_max":665,"o":"m 133 -261 q 10 -221 61 -261 q -42 -124 -42 -181 q -26 -78 -42 -96 q 19 -60 -11 -60 q 79 -83 49 -60 q 104 -162 79 -131 q 165 -194 129 -194 q 226 -163 201 -194 q 250 -83 250 -132 l 250 840 q 315 1064 250 982 q 490 1146 379 1146 q 614 1106 563 1146 q 665 1008 665 1065 q 650 963 665 981 q 605 944 635 944 q 544 968 575 944 q 519 1047 544 1015 q 458 1079 494 1079 q 399 1048 422 1079 q 375 968 375 1017 l 374 44 q 309 -179 374 -97 q 133 -261 244 -261 z "},"≈":{"ha":863,"x_min":138,"x_max":725,"o":"m 725 593 q 594 639 660 639 q 430 594 528 639 q 262 549 332 549 q 138 593 192 549 l 138 699 q 268 654 201 654 q 433 699 335 654 q 601 743 531 743 q 725 699 672 743 l 725 593 m 725 293 q 594 339 660 339 q 430 294 528 339 q 262 249 332 249 q 138 293 192 249 l 138 399 q 268 354 201 354 q 433 399 335 354 q 601 443 531 443 q 725 399 672 443 l 725 293 z "},"≠":{"ha":863,"x_min":138,"x_max":725,"o":"m 138 293 l 138 399 l 725 399 l 725 293 l 138 293 m 138 593 l 138 699 l 725 699 l 725 593 l 138 593 m 272 0 l 174 0 l 589 997 l 689 997 l 272 0 z "},"≤":{"ha":863,"x_min":138,"x_max":725,"o":"m 138 443 l 138 549 l 725 786 l 725 681 l 256 496 l 725 311 l 725 206 l 138 443 m 138 -1 l 138 104 l 725 104 l 725 -1 l 138 -1 z "},"≥":{"ha":863,"x_min":138,"x_max":725,"o":"m 725 549 l 725 443 l 138 206 l 138 311 l 607 496 l 138 681 l 138 786 l 725 549 m 138 -1 l 138 104 l 725 104 l 725 -1 l 138 -1 z "},"◊":{"ha":831,"x_min":69,"x_max":761,"o":"m 69 499 l 343 997 l 485 997 l 761 499 l 488 0 l 346 0 l 69 499 m 392 906 l 196 533 l 438 90 l 633 463 l 392 906 z "},"ﬀ":{"ha":858,"x_min":-146,"x_max":1011,"o":"m 671 603 l 671 250 q 595 -103 671 28 q 375 -235 519 -235 q 243 -194 300 -235 q 26 -331 183 -331 q -97 -292 -49 -331 q -146 -195 -146 -254 q -107 -100 -146 -136 q -10 -64 -68 -64 q 17 -79 17 -64 q 7 -94 17 -83 q -22 -176 -22 -131 q -1 -247 -22 -222 q 58 -271 21 -271 q 124 -234 96 -271 q 151 -125 151 -197 l 151 603 l 32 603 q 38 651 32 640 q 65 668 43 663 l 156 690 q 252 980 171 874 q 474 1086 333 1086 q 644 1022 585 1086 q 801 1086 708 1086 q 953 1043 894 1086 q 1011 936 1011 1000 q 973 834 1011 872 q 875 796 935 796 q 849 811 849 796 q 857 828 849 814 q 882 918 882 867 q 857 997 882 969 q 789 1024 832 1024 q 671 796 671 1024 l 671 690 l 865 690 q 833 603 865 628 l 671 603 m 276 -18 q 268 -114 276 -69 q 376 -172 310 -172 q 546 158 546 -172 l 546 603 l 276 603 l 276 -18 m 276 690 l 546 690 l 546 704 q 560 853 546 806 q 575 908 574 901 q 544 992 575 961 q 458 1024 514 1024 q 321 934 365 1024 q 276 690 276 844 z "},"ﬁ":{"ha":856,"x_min":-146,"x_max":807,"o":"m 517 603 l 276 603 l 276 -18 q 213 -247 276 -162 q 26 -331 150 -331 q -97 -292 -49 -331 q -146 -195 -146 -254 q -107 -100 -146 -136 q -10 -64 -68 -64 q 17 -79 17 -64 q 7 -94 17 -83 q -22 -176 -22 -131 q -1 -247 -22 -222 q 58 -271 21 -271 q 124 -234 96 -271 q 151 -125 151 -197 l 151 603 l 29 603 q 35 651 29 640 q 63 668 40 663 l 156 690 q 256 981 172 875 q 488 1086 340 1086 q 636 1043 578 1086 q 694 936 694 1000 q 656 834 694 872 q 558 796 617 796 q 532 811 532 796 q 540 828 532 814 q 565 919 565 867 q 541 997 565 971 q 472 1024 517 1024 q 276 690 276 1024 l 517 690 q 626 708 576 690 q 658 696 646 708 q 669 664 669 683 l 669 122 q 711 75 669 75 q 781 104 744 75 l 807 68 q 651 -19 728 -19 q 569 15 594 -19 q 544 128 544 50 l 544 572 q 517 603 544 603 z "},"ﬂ":{"ha":869,"x_min":-146,"x_max":849,"o":"m 468 1086 q 599 1043 540 1086 q 676 1081 651 1081 q 707 1070 701 1081 q 713 1036 713 1060 l 711 122 q 753 75 711 75 q 822 104 786 75 l 849 68 q 693 -19 769 -19 q 611 15 636 -19 q 586 128 586 50 l 586 861 q 553 979 586 935 q 451 1024 519 1024 q 276 690 276 1024 l 471 690 q 439 603 471 628 l 276 603 l 276 -18 q 213 -247 276 -162 q 26 -331 150 -331 q -97 -292 -49 -331 q -146 -195 -146 -254 q -107 -100 -146 -136 q -10 -64 -68 -64 q 17 -79 17 -64 q 7 -94 17 -83 q -22 -176 -22 -131 q -1 -247 -22 -222 q 58 -271 21 -271 q 124 -234 96 -271 q 151 -125 151 -197 l 151 603 l 29 603 q 35 651 29 640 q 63 668 40 663 l 156 690 q 251 980 171 874 q 468 1086 331 1086 z "},"ﬃ":{"ha":1222,"x_min":-146,"x_max":1201,"o":"m 671 690 l 911 690 q 1021 708 971 690 q 1052 696 1040 708 q 1064 664 1064 683 l 1064 122 q 1106 75 1064 75 q 1175 104 1139 75 l 1201 68 q 1046 -19 1122 -19 q 964 15 989 -19 q 939 128 939 50 l 939 572 q 911 603 939 603 l 671 603 l 671 250 q 598 -106 671 24 q 375 -235 525 -235 q 243 -194 300 -235 q 26 -331 183 -331 q -97 -292 -49 -331 q -146 -195 -146 -254 q -107 -100 -146 -136 q -10 -64 -68 -64 q 17 -79 17 -64 q 7 -94 17 -83 q -22 -176 -22 -131 q -1 -247 -22 -222 q 58 -271 21 -271 q 124 -234 96 -271 q 151 -125 151 -197 l 151 603 l 32 603 q 38 651 32 640 q 65 668 43 663 l 156 690 q 256 981 172 875 q 488 1086 340 1086 q 665 997 597 1086 q 882 1086 747 1086 q 1031 1043 972 1086 q 1089 936 1089 1000 q 1050 834 1089 872 q 953 796 1011 796 q 926 811 926 796 q 935 828 926 814 q 960 919 960 867 q 935 997 960 971 q 867 1024 911 1024 q 718 935 765 1024 q 671 690 671 846 m 276 -18 q 268 -114 276 -69 q 371 -172 307 -172 q 546 158 546 -172 l 546 603 l 276 603 l 276 -18 m 276 690 l 550 690 q 603 906 561 819 q 560 992 594 961 q 472 1024 526 1024 q 324 935 371 1024 q 276 690 276 846 z "},"ﬄ":{"ha":1222,"x_min":-146,"x_max":1243,"o":"m 1147 75 q 1217 104 1181 75 l 1243 68 q 1088 -19 1164 -19 q 1006 15 1031 -19 q 981 128 981 50 l 981 861 q 947 979 981 935 q 846 1024 914 1024 q 671 690 671 1024 l 865 690 q 833 603 865 628 l 671 603 l 671 250 q 598 -106 671 24 q 375 -235 525 -235 q 243 -194 300 -235 q 26 -331 183 -331 q -97 -292 -49 -331 q -146 -195 -146 -254 q -107 -100 -146 -136 q -10 -64 -68 -64 q 17 -79 17 -64 q 7 -94 17 -83 q -22 -176 -22 -131 q -1 -247 -22 -222 q 58 -271 21 -271 q 124 -234 96 -271 q 151 -125 151 -197 l 151 603 l 32 603 q 38 651 32 640 q 65 668 43 663 l 156 690 q 256 981 172 875 q 488 1086 340 1086 q 663 1001 594 1086 q 863 1086 740 1086 q 993 1043 935 1086 q 1071 1081 1046 1081 q 1101 1070 1096 1081 q 1107 1036 1107 1060 l 1106 122 q 1147 75 1106 75 m 276 -18 q 268 -114 276 -69 q 371 -172 307 -172 q 546 158 546 -172 l 546 603 l 276 603 l 276 -18 m 472 1024 q 324 935 371 1024 q 276 690 276 846 l 550 690 q 601 910 561 821 q 559 993 593 963 q 472 1024 525 1024 z "}}}
